<svg width="150" height="150" viewBox="0 0 150 150" fill="none" xmlns="http://www.w3.org/2000/svg">
<g id="Asset 4">
<g id="Layer 1">
<g id="Group">
<path id="Vector" d="M129.706 75C129.706 75 70.7453 16.02 64.8675 10.1325C61.0738 6.34844 57.0304 2.98694 52.7949 0H0V150H52.7949C57.0304 147.013 61.0738 143.652 64.8579 139.867C70.7357 133.98 129.697 75 129.697 75" fill="#E6E7E8"/>
<path id="Vector_2" d="M43.8244 118.824C47.8006 114.848 87.6297 75 87.6297 75C87.6297 75 47.8006 35.1517 43.8244 31.1755C31.723 19.0837 15.8567 13.033 0 13.033V136.977C15.8567 136.977 31.723 130.926 43.8244 118.824Z" fill="#F37021"/>
<path id="Vector_3" d="M36.6116 75C36.6116 54.7829 20.2171 38.398 0 38.398V111.612C20.2171 111.612 36.6116 95.2267 36.6116 75Z" fill="#6F2C91"/>
</g>
</g>
</g>
</svg>
