<svg width="150" height="150" viewBox="0 0 150 150" fill="none" xmlns="http://www.w3.org/2000/svg">
<g id="Asset 4">
<g clip-path="url(#clip0_2711_4809)">
<g id="Layer 1">
<g id="Group">
<path id="Vector" d="M152.706 75C152.706 75 93.7453 16.02 87.8675 10.1325C84.0738 6.34844 80.0304 2.98694 75.7949 0H23V150H75.7949C80.0304 147.013 84.0738 143.652 87.8579 139.867C93.7357 133.98 152.697 75 152.697 75" fill="#E6E7E8"/>
<path id="Vector_2" d="M54.8244 118.791C58.8006 114.815 98.6297 74.967 98.6297 74.967C98.6297 74.967 58.8006 35.1187 54.8244 31.1425C42.723 19.0507 26.8567 13 11 13V136.944C26.8567 136.944 42.723 130.893 54.8244 118.791Z" fill="#F37021"/>
<path id="Vector_3" d="M36.6116 75C36.6116 54.7829 20.2171 38.398 0 38.398V111.612C20.2171 111.612 36.6116 95.2267 36.6116 75Z" fill="#6F2C91"/>
</g>
</g>
</g>
</g>
<defs>
<clipPath id="clip0_2711_4809">
<rect width="150" height="150" rx="8" fill="white"/>
</clipPath>
</defs>
</svg>
