<svg width="150" height="150" viewBox="0 0 150 150" fill="none" xmlns="http://www.w3.org/2000/svg">
<g id="Asset 29">
<g clip-path="url(#clip0_2688_4214)">
<g id="Layer 1">
<g id="Group">
<path id="Vector" d="M150 16.2889H126.114V39.7426H150V16.2889Z" fill="#E6E7E8"/>
<path id="Vector_2" d="M150 53.035H93.3247V76.4887H150V53.035Z" fill="#E6E7E8"/>
<path id="Vector_3" d="M150 89.7906H60.5356V113.244H150V89.7906Z" fill="#E6E7E8"/>
<path id="Vector_4" d="M150 126.546H27.7466V150H150V126.546Z" fill="#E6E7E8"/>
<path id="Vector_5" d="M73.9625 36.6692C74.0105 37.2263 74.049 37.7929 74.049 38.3596C74.049 50.1633 64.4831 59.7292 52.689 59.7292C40.8949 59.7292 31.3194 50.1633 31.3194 38.3596C31.3194 26.5559 40.8853 16.99 52.689 16.99C54.6387 16.99 56.5211 17.2782 58.3171 17.768C54.2545 15.7511 49.702 14.5793 44.8519 14.5793C28.1404 14.5793 14.5791 28.131 14.5791 44.8425C14.5791 61.554 28.1308 75.1057 44.8519 75.1057C61.573 75.1057 75.115 61.554 75.115 44.8425C75.115 41.9996 74.702 39.272 73.9625 36.6596" fill="#FBB789"/>
</g>
</g>
</g>
</g>
<defs>
<clipPath id="clip0_2688_4214">
<rect width="150" height="150" rx="8" fill="white"/>
</clipPath>
</defs>
</svg>
