<svg width="98" height="79" viewBox="0 0 98 79" fill="none" xmlns="http://www.w3.org/2000/svg">
<g id="Group 36548">
<path id="Vector" d="M-0.000572205 72.5826C-0.000572205 72.5826 -0.000572205 39.6737 -0.000572205 36.395C-0.000572205 16.4087 16.208 0.200195 36.1942 0.200195C39.473 0.200195 72.3818 0.200195 72.3818 0.200195C72.3818 0.200195 72.3818 33.1091 72.3818 36.3878C72.3818 56.3741 56.1804 72.5826 36.1871 72.5826C32.9083 72.5826 -0.000572205 72.5826 -0.000572205 72.5826Z" fill="#F37021"/>
<path id="Vector_2" d="M48.5191 54.0075C48.5191 67.6715 59.5956 78.748 73.2595 78.748C86.9235 78.748 98 67.6715 98 54.0075C98 40.3436 86.9235 29.2671 73.2595 29.2671C59.5956 29.2671 48.5191 40.3436 48.5191 54.0075Z" fill="#6F2C91"/>
</g>
</svg>
