<svg width="150" height="150" viewBox="0 0 150 150" fill="none" xmlns="http://www.w3.org/2000/svg">
<g id="Component 2/state17">
<g id="Layer 1">
<g id="Group">
<path id="Vector" d="M70.0346 0H58.567C58.567 32.2897 32.2993 58.567 0 58.567V70.0346C38.6189 70.0346 70.0346 38.6189 70.0346 0Z" fill="white"/>
<path id="Vector_2" d="M99.9424 0H88.4748C88.4748 48.7899 48.7899 88.4748 0 88.4748V99.9424C55.1095 99.9328 99.9424 55.1095 99.9424 0Z" fill="white"/>
<path id="Vector_3" d="M40.4053 0H28.9378C28.9474 15.9624 15.9624 28.9378 0 28.9378V40.4053C22.282 40.4053 40.4053 22.282 40.4053 0Z" fill="white"/>
<path id="Vector_4" d="M88.4748 0H70.0346C70.0346 38.6189 38.6189 70.0346 0 70.0346V88.4748C48.7803 88.4748 88.4748 48.7899 88.4748 0Z" fill="#6F2C91"/>
<path id="Vector_5" d="M58.567 0H40.4053C40.4053 22.282 22.282 40.4053 0 40.4053V58.567C32.2993 58.567 58.567 32.2897 58.567 0Z" fill="#6F2C91"/>
<path id="Vector_6" d="M99.9424 0C99.9424 55.1095 55.1095 99.9328 0 99.9328V119.622C66.068 119.622 119.622 66.068 119.622 0H99.9328H99.9424Z" fill="#6F2C91"/>
<path id="Vector_7" d="M28.9378 0H0V28.9378C15.9624 28.9378 28.9378 15.9624 28.9378 0Z" fill="#6F2C91"/>
</g>
</g>
</g>
</svg>
