<svg width="150" height="150" viewBox="0 0 150 150" fill="none" xmlns="http://www.w3.org/2000/svg">
<g id="Component 2/state13">
<g clip-path="url(#clip0_2711_4591)">
<g id="Layer 1">
<g id="Group">
<path id="Vector" d="M0 0L32.3665 32.3665C43.277 21.456 58.3461 14.7042 75 14.7042C108.298 14.7042 135.296 41.7019 135.296 75C135.296 91.6443 128.544 106.723 117.634 117.634L150 150V0H0Z" fill="#E6E7E8"/>
<path id="Vector_2" d="M41.6748 111.404C59.8483 129.808 89.5042 129.994 107.907 111.82C117.106 102.736 121.755 90.7749 121.83 78.7902L28.1678 78.2021C28.0926 90.1868 32.5855 102.2 41.6748 111.404Z" fill="#F36E21"/>
<path id="Vector_3" d="M42.0924 41.5095C32.8882 50.5989 28.2448 62.555 28.1695 74.5397L121.832 75.1278C121.907 63.143 117.409 51.1243 108.325 41.9254C90.1515 23.5222 60.4956 23.336 42.0924 41.5095Z" fill="#6F2C91"/>
</g>
</g>
</g>
</g>
<defs>
<clipPath id="clip0_2711_4591">
<rect width="150" height="150" rx="8" fill="white"/>
</clipPath>
</defs>
</svg>
