<svg width="150" height="150" viewBox="0 0 150 150" fill="none" xmlns="http://www.w3.org/2000/svg">
<g id="Component 3">
<g id="Layer 1">
<g id="Group">
<path id="Vector" d="M105.82 54.3969C106.848 55.4245 111.256 59.8329 116.423 65.0096C125.375 56.0488 136.631 44.7926 136.631 44.7926C136.631 44.7926 108.615 16.7672 105.82 13.9723C88.8013 -3.04649 61.1986 -3.04649 44.1797 13.9723C41.3849 16.7672 13.3691 44.7926 13.3691 44.7926C13.3691 44.7926 24.6254 56.0488 33.5766 65.0096C38.7533 59.8329 43.1617 55.4245 44.1797 54.3969C61.1986 37.378 88.8013 37.378 105.82 54.3969Z" fill="#6F2C91"/>
<path id="Vector_2" d="M105.82 95.6032C88.8013 112.622 61.1986 112.622 44.1797 95.6032C43.1617 94.5755 38.7533 90.1671 33.5766 85C24.6254 93.9512 13.3691 105.207 13.3691 105.207C13.3691 105.207 41.3849 133.233 44.1797 136.028C61.1986 153.046 88.8013 153.046 105.82 136.028C108.615 133.233 136.631 105.207 136.631 105.207C136.631 105.207 125.375 93.9512 116.423 85C111.256 90.1767 106.848 94.5851 105.82 95.6032Z" fill="#F37021"/>
<path id="Vector_3" d="M105.82 85.6032C106.848 84.5755 111.256 80.1671 116.423 75C111.256 69.8233 106.848 65.4149 105.82 64.3873C88.8014 47.3684 61.1986 47.3684 44.1798 64.3873C43.1618 65.4149 38.7534 69.8233 33.5767 75C38.7534 80.1767 43.1618 84.5851 44.1798 85.6032C61.1986 102.622 88.8014 102.622 105.82 85.6032Z" fill="white"/>
</g>
</g>
</g>
</svg>
