<svg width="83" height="83" viewBox="0 0 83 83" fill="none" xmlns="http://www.w3.org/2000/svg">
<g id="Group 36551">
<path id="Vector" d="M21.6113 83L34.4062 83C34.4062 56.2041 56.2041 34.4062 83 34.4062L83 21.6113C49.1536 21.6113 21.6113 49.1469 21.6113 83Z" fill="#6F2C91"/>
<path id="Vector_2" d="M42.363 83L54.9646 83C54.9646 67.5395 67.5395 54.9646 83 54.9646L83 42.363C60.589 42.363 42.363 60.5957 42.363 83Z" fill="#6F2C91"/>
<path id="Vector_3" d="M13.6545 83C13.6545 44.762 44.762 13.6612 83 13.6612L83 0C37.1584 -4.0076e-06 4.0076e-06 37.1584 0 83L13.6612 83L13.6545 83Z" fill="#6F2C91"/>
<path id="Vector_4" d="M62.9214 83L83 83L83 62.9214C71.9244 62.9214 62.9214 71.9244 62.9214 83Z" fill="#6F2C91"/>
</g>
</svg>
