<svg width="150" height="150" viewBox="0 0 150 150" fill="none" xmlns="http://www.w3.org/2000/svg">
<g id="Component 2/state17">
<g id="Layer 1">
<g id="Group">
<path id="Vector" d="M0 79.9654L0 91.433C32.2897 91.433 58.567 117.701 58.567 150H70.0346C70.0346 111.381 38.6189 79.9654 0 79.9654Z" fill="white"/>
<path id="Vector_2" d="M0 50.0576L0 61.5252C48.7899 61.5252 88.4748 101.21 88.4748 150H99.9424C99.9328 94.8905 55.1095 50.0576 0 50.0576Z" fill="white"/>
<path id="Vector_3" d="M0 109.595L0 121.062C15.9624 121.053 28.9378 134.038 28.9378 150H40.4053C40.4053 127.718 22.282 109.595 0 109.595Z" fill="white"/>
<path id="Vector_4" d="M0 61.5252L0 79.9654C38.6189 79.9654 70.0346 111.381 70.0346 150H88.4748C88.4748 101.22 48.7899 61.5252 0 61.5252Z" fill="#6F2C91"/>
<path id="Vector_5" d="M0 91.433L0 109.595C22.282 109.595 40.4053 127.718 40.4053 150H58.567C58.567 117.701 32.2897 91.433 0 91.433Z" fill="#6F2C91"/>
<path id="Vector_6" d="M0 50.0576C55.1095 50.0576 99.9328 94.8905 99.9328 150L119.622 150C119.622 83.932 66.068 30.3784 0 30.3784L0 50.0672L0 50.0576Z" fill="#6F2C91"/>
<path id="Vector_7" d="M0 121.062L0 150H28.9378C28.9378 134.038 15.9624 121.062 0 121.062Z" fill="#6F2C91"/>
</g>
</g>
</g>
</svg>
