<svg width="150" height="150" viewBox="0 0 150 150" fill="none" xmlns="http://www.w3.org/2000/svg">
<g id="Asset 4">
<g clip-path="url(#clip0_2711_4826)">
<g id="Layer 1">
<g id="Group">
<path id="Vector" d="M152.706 75C152.706 75 93.7453 16.02 87.8675 10.1325C84.0738 6.34844 80.0304 2.98694 75.7949 0H23V150H75.7949C80.0304 147.013 84.0738 143.652 87.8579 139.867C93.7357 133.98 152.697 75 152.697 75" fill="#E6E7E8"/>
<path id="Vector_2" d="M47.8244 118.791C51.8006 114.815 91.6297 74.967 91.6297 74.967C91.6297 74.967 51.8006 35.1187 47.8244 31.1425C35.723 19.0507 19.8567 13 4 13V136.944C19.8567 136.944 35.723 130.893 47.8244 118.791Z" fill="#F37021"/>
<path id="Vector_3" d="M43.6116 74.602C43.6116 54.3849 27.2171 38 7 38V111.214C27.2171 111.214 43.6116 94.8287 43.6116 74.602Z" fill="#6F2C91"/>
</g>
</g>
</g>
</g>
<defs>
<clipPath id="clip0_2711_4826">
<rect width="150" height="150" rx="8" fill="white"/>
</clipPath>
</defs>
</svg>
