<svg width="124" height="138" viewBox="0 0 124 138" fill="none" xmlns="http://www.w3.org/2000/svg">
<g id="Layer 1">
<g id="Group">
<path id="Vector" d="M92.8202 53.8969C93.8478 54.9245 98.2562 59.3329 103.423 64.5096C112.375 55.5488 123.631 44.2926 123.631 44.2926C123.631 44.2926 95.615 16.2672 92.8202 13.4723C75.8013 -3.54649 48.1986 -3.54649 31.1797 13.4723C28.3849 16.2672 0.369141 44.2926 0.369141 44.2926C0.369141 44.2926 11.6254 55.5488 20.5766 64.5096C25.7533 59.3329 30.1617 54.9245 31.1797 53.8969C48.1986 36.878 75.8013 36.878 92.8202 53.8969Z" fill="#6F2C91"/>
<path id="Vector_2" d="M92.8202 84.1032C75.8013 101.122 48.1986 101.122 31.1797 84.1032C30.1617 83.0755 25.7533 78.6671 20.5766 73.5C11.6254 82.4512 0.369141 93.7075 0.369141 93.7075C0.369141 93.7075 28.3849 121.733 31.1797 124.528C48.1986 141.547 75.8013 141.547 92.8202 124.528C95.615 121.733 123.631 93.7075 123.631 93.7075C123.631 93.7075 112.375 82.4512 103.423 73.5C98.2562 78.6767 93.8478 83.0851 92.8202 84.1032Z" fill="#F37021"/>
<path id="Vector_3" d="M92.8202 79.6032C93.8479 78.5755 98.2563 74.1671 103.423 69C98.2563 63.8233 93.8479 59.4149 92.8202 58.3873C75.8014 41.3684 48.1986 41.3684 31.1798 58.3873C30.1618 59.4149 25.7534 63.8233 20.5767 69C25.7534 74.1767 30.1618 78.5851 31.1798 79.6032C48.1986 96.622 75.8014 96.622 92.8202 79.6032Z" fill="white"/>
</g>
</g>
</svg>
