<svg width="97" height="99" viewBox="0 0 97 99" fill="none" xmlns="http://www.w3.org/2000/svg">
<g id="Layer 1">
<g id="Group">
<path id="Vector" d="M68.9097 47.8028C69.3709 48.6018 71.3497 52.0291 73.6675 56.0522C80.6282 52.0284 89.3795 46.9759 89.3795 46.9759C89.3795 46.9759 76.8058 25.1889 75.5512 23.0161C67.9121 9.78464 50.9871 5.24961 37.7557 12.8888C35.5828 14.1433 13.8002 26.7245 13.8002 26.7245C13.8002 26.7245 18.8527 35.4757 22.869 42.4408C26.8937 40.1172 30.3211 38.1384 31.1141 37.6755C44.3455 30.0364 61.2705 34.5714 68.9097 47.8028Z" fill="#6F2C91"/>
<path id="Vector_2" d="M65.4258 60.8055C52.1944 68.4447 35.2694 63.9097 27.6303 50.6783C27.1749 49.8809 25.1961 46.4535 22.8709 42.4348C15.9117 46.4526 7.16046 51.5052 7.16046 51.5052C7.16046 51.5052 19.7342 73.2921 20.9887 75.465C28.6279 88.6964 45.5528 93.2314 58.7842 85.5923C60.9571 84.3378 82.7397 71.7566 82.7397 71.7566C82.7397 71.7566 77.6872 63.0053 73.6693 56.0461C69.6505 58.3714 66.2232 60.3501 65.4258 60.8055Z" fill="#F37021"/>
<path id="Vector_3" d="M65.4251 60.8057C66.2241 60.3444 69.6514 58.3656 73.6686 56.0463C71.3509 52.0232 69.3721 48.5958 68.9108 47.7969C61.2717 34.5655 44.3467 30.0304 31.1153 37.6696C30.3222 38.1325 26.8949 40.1112 22.8702 42.4349C25.1939 46.4595 27.1726 49.8869 27.6296 50.6784C35.2688 63.9098 52.1937 68.4448 65.4251 60.8057Z" fill="white"/>
</g>
</g>
</svg>
