<svg width="124" height="128" viewBox="0 0 124 128" fill="none" xmlns="http://www.w3.org/2000/svg">
<g id="Layer 1">
<g id="Group">
<path id="Vector" d="M92.8202 53.3969C93.8478 54.4245 98.2562 58.8329 103.423 64.0096C112.375 55.0488 123.631 43.7926 123.631 43.7926C123.631 43.7926 95.615 15.7672 92.8202 12.9723C75.8013 -4.04649 48.1986 -4.04649 31.1797 12.9723C28.3849 15.7672 0.369141 43.7926 0.369141 43.7926C0.369141 43.7926 11.6254 55.0488 20.5766 64.0096C25.7533 58.8329 30.1617 54.4245 31.1797 53.3969C48.1986 36.378 75.8013 36.378 92.8202 53.3969Z" fill="#6F2C91"/>
<path id="Vector_2" d="M92.8202 74.6032C75.8013 91.622 48.1986 91.622 31.1797 74.6032C30.1617 73.5755 25.7533 69.1671 20.5766 64C11.6254 72.9512 0.369141 84.2075 0.369141 84.2075C0.369141 84.2075 28.3849 112.233 31.1797 115.028C48.1986 132.047 75.8013 132.047 92.8202 115.028C95.615 112.233 123.631 84.2075 123.631 84.2075C123.631 84.2075 112.375 72.9512 103.423 64C98.2562 69.1767 93.8478 73.5851 92.8202 74.6032Z" fill="#F37021"/>
<path id="Vector_3" d="M92.8202 74.6032C93.8479 73.5755 98.2563 69.1671 103.423 64C98.2563 58.8233 93.8479 54.4149 92.8202 53.3873C75.8014 36.3684 48.1986 36.3684 31.1798 53.3873C30.1618 54.4149 25.7534 58.8233 20.5767 64C25.7534 69.1767 30.1618 73.5851 31.1798 74.6032C48.1986 91.622 75.8014 91.622 92.8202 74.6032Z" fill="white"/>
</g>
</g>
</svg>
