<svg width="150" height="150" viewBox="0 0 150 150" fill="none" xmlns="http://www.w3.org/2000/svg">
<g id="Component 2/state13">
<g clip-path="url(#clip0_2711_4598)">
<g id="Layer 1">
<g id="Group">
<path id="Vector" d="M0 0L32.3665 32.3665C43.277 21.456 58.3461 14.7042 75 14.7042C108.298 14.7042 135.296 41.7019 135.296 75C135.296 91.6443 128.544 106.723 117.634 117.634L150 150V0H0Z" fill="#E6E7E8"/>
<path id="Vector_2" d="M28.0606 75.026C28.0271 100.89 48.9702 121.888 74.8343 121.921C87.7626 121.938 99.4817 116.709 107.967 108.245L41.8226 41.9285C33.337 50.3922 28.0774 62.0903 28.0606 75.026Z" fill="#F36E21"/>
<path id="Vector_3" d="M75.1656 28.0429C62.2298 28.0261 50.5181 33.2554 42.0325 41.7191L108.177 108.035C116.663 99.5718 121.923 87.8663 121.939 74.9379C121.973 49.0738 101.03 28.0764 75.1656 28.0429Z" fill="#6F2C91"/>
</g>
</g>
</g>
</g>
<defs>
<clipPath id="clip0_2711_4598">
<rect width="150" height="150" rx="8" fill="white"/>
</clipPath>
</defs>
</svg>
