<svg width="95" height="95" viewBox="0 0 95 95" fill="none" xmlns="http://www.w3.org/2000/svg">
<g id="Asset 42" clip-path="url(#clip0_2851_3087)">
<g id="Layer 1">
<g id="Group">
<path id="Vector" d="M37.9059 22.3315C25.5537 20.331 12.5334 21.4346 0 26.2109C4.77634 38.7444 12.6179 49.1968 22.3317 57.0849C24.3936 44.3512 29.774 32.345 37.9059 22.3315Z" fill="#FBB789"/>
<path id="Vector_2" d="M57.0847 72.6591C69.4369 74.6596 82.4571 73.556 94.9906 68.7797C90.2142 56.2463 82.3727 45.7938 72.6589 37.9058C70.597 50.6395 65.2166 62.6456 57.0847 72.6591Z" fill="#FBB789"/>
<path id="Vector_3" d="M22.3316 57.0849C20.3311 69.4371 21.4347 82.4573 26.211 94.9907C38.7445 90.2144 49.1969 82.3728 57.085 72.659C44.3513 70.5971 32.3451 65.2168 22.3316 57.0849Z" fill="#FBB789"/>
<path id="Vector_4" d="M68.7795 -9.63857e-05C56.2461 4.77624 45.7936 12.6178 37.9056 22.3316C50.6393 24.3935 62.6455 29.7739 72.659 37.9058C74.6595 25.5536 73.5559 12.5333 68.7795 -9.63857e-05Z" fill="#FBB789"/>
<path id="Vector_5" d="M37.906 22.3315C29.7741 32.3451 24.3937 44.3512 22.3318 57.0849C32.3453 65.2168 44.3515 70.5972 57.0852 72.6591C65.2171 62.6456 70.5974 50.6394 72.6593 37.9057C62.6458 29.7738 50.6397 24.3935 37.906 22.3315Z" fill="#6F2C91"/>
</g>
</g>
</g>
<defs>
<clipPath id="clip0_2851_3087">
<rect width="73.6049" height="73.6049" fill="white" transform="translate(0 26.2109) rotate(-20.8612)"/>
</clipPath>
</defs>
</svg>
