<svg width="95" height="95" viewBox="0 0 95 95" fill="none" xmlns="http://www.w3.org/2000/svg">
<g id="Asset 42" clip-path="url(#clip0_2851_3269)">
<g id="Layer 1">
<g id="Group">
<path id="Vector" d="M37.9059 22.3316C25.5537 20.3311 12.5334 21.4347 0 26.2111C4.77634 38.7445 12.6179 49.197 22.3317 57.085C24.3936 44.3513 29.774 32.3452 37.9059 22.3316Z" fill="#FBB789"/>
<path id="Vector_2" d="M57.0852 72.6593C69.4374 74.6598 82.4576 73.5562 94.9911 68.7798C90.2147 56.2464 82.3732 45.7939 72.6594 37.9059C70.5975 50.6396 65.2171 62.6457 57.0852 72.6593Z" fill="#FBB789"/>
<path id="Vector_3" d="M22.3316 57.085C20.3311 69.4372 21.4347 82.4574 26.211 94.9909C38.7445 90.2145 49.1969 82.373 57.085 72.6592C44.3513 70.5972 32.3451 65.2169 22.3316 57.085Z" fill="#FBB789"/>
<path id="Vector_4" d="M68.7795 -9.63857e-05C56.2461 4.77624 45.7936 12.6178 37.9056 22.3316C50.6393 24.3935 62.6455 29.7739 72.659 37.9058C74.6595 25.5536 73.5559 12.5333 68.7795 -9.63857e-05Z" fill="#FBB789"/>
<path id="Vector_5" d="M37.906 22.3315C29.7741 32.3451 24.3937 44.3512 22.3318 57.0849C32.3453 65.2168 44.3515 70.5972 57.0852 72.6591C65.2171 62.6456 70.5974 50.6394 72.6593 37.9057C62.6458 29.7738 50.6397 24.3935 37.906 22.3315Z" fill="#6F2C91"/>
</g>
</g>
</g>
<defs>
<clipPath id="clip0_2851_3269">
<rect width="73.6049" height="73.6049" fill="white" transform="translate(0 26.2111) rotate(-20.8612)"/>
</clipPath>
</defs>
</svg>
