<svg width="150" height="150" viewBox="0 0 150 150" fill="none" xmlns="http://www.w3.org/2000/svg">
<g id="Component 2/state17">
<g id="Layer 1">
<g id="Group">
<path id="Vector" d="M150 70.0346V58.567C117.71 58.567 91.433 32.2993 91.433 0L79.9654 0C79.9654 38.6189 111.381 70.0346 150 70.0346Z" fill="white"/>
<path id="Vector_2" d="M150 99.9424V88.4748C101.21 88.4748 61.5252 48.7899 61.5252 0L50.0576 0C50.0672 55.1095 94.8905 99.9424 150 99.9424Z" fill="white"/>
<path id="Vector_3" d="M150 40.4053V28.9378C134.038 28.9474 121.062 15.9624 121.062 0L109.595 0C109.595 22.282 127.718 40.4053 150 40.4053Z" fill="white"/>
<path id="Vector_4" d="M150 88.4748L150 70.0346C111.381 70.0346 79.9654 38.6189 79.9654 0L61.5252 0C61.5252 48.7803 101.21 88.4748 150 88.4748Z" fill="#6F2C91"/>
<path id="Vector_5" d="M150 58.567V40.4053C127.718 40.4053 109.595 22.282 109.595 0L91.433 0C91.433 32.2993 117.71 58.567 150 58.567Z" fill="#6F2C91"/>
<path id="Vector_6" d="M150 99.9424C94.8905 99.9424 50.0672 55.1095 50.0672 0L30.3784 0C30.3784 66.068 83.932 119.622 150 119.622V99.9328V99.9424Z" fill="#6F2C91"/>
<path id="Vector_7" d="M150 28.9378V0L121.062 0C121.062 15.9624 134.038 28.9378 150 28.9378Z" fill="#6F2C91"/>
</g>
</g>
</g>
</svg>
