<svg width="70" height="70" viewBox="0 0 70 70" fill="none" xmlns="http://www.w3.org/2000/svg">
<g id="Asset 43" clip-path="url(#clip0_2851_3113)">
<g id="Layer 1">
<g id="Group">
<path id="Vector" d="M1.5098e-06 -1.5098e-06L70 -7.62939e-06L70 70C31.3382 70 4.88972e-06 38.6618 1.5098e-06 -1.5098e-06Z" fill="#F37021"/>
<path id="Vector_2" d="M56.1237 39.9617C58.0375 39.9617 59.5928 38.4109 59.5928 36.4926C59.5928 34.5743 58.042 33.0235 56.1237 33.0235C54.2054 33.0235 52.6546 34.5743 52.6546 36.4926C52.6546 38.4109 54.2054 39.9617 56.1237 39.9617Z" fill="#6F2C91"/>
<path id="Vector_3" d="M44.7707 39.9617C46.6845 39.9617 48.2397 38.4109 48.2397 36.4926C48.2397 34.5743 46.689 33.0235 44.7707 33.0235C42.8524 33.0235 41.3016 34.5743 41.3016 36.4926C41.3016 38.4109 42.8524 39.9617 44.7707 39.9617Z" fill="#6F2C91"/>
<path id="Vector_4" d="M33.4133 33.0279C31.4994 33.0279 29.9442 34.5787 29.9442 36.497C29.9442 38.4153 31.495 39.9661 33.4133 39.9661C35.3316 39.9661 36.8823 38.4153 36.8823 36.497C36.8823 34.5787 35.3315 33.0279 33.4133 33.0279Z" fill="#6F2C91"/>
<path id="Vector_5" d="M56.1237 28.6982C58.0375 28.6982 59.5928 27.1475 59.5928 25.2292C59.5928 23.3109 58.042 21.7601 56.1237 21.7601C54.2054 21.7601 52.6546 23.3109 52.6546 25.2292C52.6546 27.1475 54.2054 28.6982 56.1237 28.6982Z" fill="#6F2C91"/>
<path id="Vector_6" d="M44.7707 28.6982C46.6845 28.6982 48.2397 27.1475 48.2397 25.2292C48.2397 23.3109 46.689 21.7601 44.7707 21.7601C42.8524 21.7601 41.3016 23.3109 41.3016 25.2292C41.3016 27.1475 42.8524 28.6982 44.7707 28.6982Z" fill="#6F2C91"/>
<path id="Vector_7" d="M33.4133 28.6982C35.3271 28.6982 36.8823 27.1475 36.8823 25.2292C36.8823 23.3109 35.3315 21.7601 33.4133 21.7601C31.495 21.7601 29.9442 23.3109 29.9442 25.2292C29.9442 27.1475 31.495 28.6982 33.4133 28.6982Z" fill="#6F2C91"/>
<path id="Vector_8" d="M56.1237 17.4304C58.0375 17.4304 59.5928 15.8796 59.5928 13.9613C59.5928 12.043 58.042 10.4923 56.1237 10.4923C54.2054 10.4923 52.6546 12.043 52.6546 13.9613C52.6546 15.8796 54.2054 17.4304 56.1237 17.4304Z" fill="#6F2C91"/>
<path id="Vector_9" d="M44.7707 17.4304C46.6845 17.4304 48.2397 15.8796 48.2397 13.9613C48.2397 12.043 46.689 10.4923 44.7707 10.4923C42.8524 10.4923 41.3016 12.043 41.3016 13.9613C41.3016 15.8796 42.8524 17.4304 44.7707 17.4304Z" fill="#6F2C91"/>
<path id="Vector_10" d="M33.4133 17.4304C35.3271 17.4304 36.8823 15.8796 36.8823 13.9613C36.8823 12.043 35.3315 10.4923 33.4133 10.4923C31.495 10.4923 29.9442 12.043 29.9442 13.9613C29.9442 15.8796 31.495 17.4304 33.4133 17.4304Z" fill="#6F2C91"/>
</g>
</g>
</g>
<defs>
<clipPath id="clip0_2851_3113">
<rect width="70" height="70" fill="white" transform="translate(70 70) rotate(180)"/>
</clipPath>
</defs>
</svg>
