<svg width="150" height="150" viewBox="0 0 150 150" fill="none" xmlns="http://www.w3.org/2000/svg">
<g id="Component 2/state13">
<g clip-path="url(#clip0_2711_4604)">
<g id="Layer 1">
<g id="Group">
<path id="Vector" d="M0 0L32.3665 32.3665C43.277 21.456 58.3461 14.7042 75 14.7042C108.298 14.7042 135.296 41.7019 135.296 75C135.296 91.6443 128.544 106.723 117.634 117.634L150 150V0H0Z" fill="#E6E7E8"/>
<path id="Vector_2" d="M17.077 74.5557C17.0346 107.311 43.5579 133.903 76.3133 133.946C92.6863 133.967 107.528 127.344 118.274 116.626L34.5058 32.6395C23.7592 43.3583 17.0982 58.1733 17.077 74.5557Z" fill="#F36E21"/>
<path id="Vector_3" d="M76.7326 15.0541C60.3502 15.0329 45.518 21.6555 34.7714 32.3743L118.54 116.36C129.287 105.642 135.948 90.8171 135.969 74.4441C136.011 41.6887 109.488 15.0966 76.7326 15.0541Z" fill="#6F2C91"/>
</g>
</g>
</g>
</g>
<defs>
<clipPath id="clip0_2711_4604">
<rect width="150" height="150" rx="8" fill="white"/>
</clipPath>
</defs>
</svg>
