<svg width="170" height="64" viewBox="0 0 170 64" fill="none" xmlns="http://www.w3.org/2000/svg">
<g id="Layer 1">
<g id="Group">
<path id="Vector" d="M34.2294 40.2204C33.2429 39.6506 32.4628 38.8728 31.8893 37.8871C31.3157 36.9015 31.0251 35.8234 31.0251 34.6529C31.0251 33.4824 31.3157 32.3889 31.8893 31.4109C32.4552 30.4252 33.2352 29.6552 34.2294 29.0776C35.2159 28.5001 36.2865 28.2228 37.4642 28.2228C39.4525 28.2228 41.2573 29.1161 42.4655 30.5638C42.6491 30.8103 42.6185 31.0336 42.3738 31.2415L41.609 31.7882C41.3643 31.9884 41.1426 31.9499 40.9437 31.6958C40.0719 30.5792 38.9095 30.0325 37.4642 30.0325C36.1718 30.0325 35.0782 30.4791 34.2064 31.357C33.3346 32.2503 32.8911 33.3515 32.8911 34.6452C32.8911 35.9389 33.3346 37.0324 34.2064 37.9102C35.0782 38.8035 36.1718 39.2502 37.4642 39.2502C38.9172 39.2502 40.0719 38.7034 40.9437 37.5868C41.1426 37.3327 41.3643 37.2942 41.609 37.4944L42.3738 38.0489C42.6185 38.2337 42.6644 38.457 42.4885 38.7034C41.2802 40.1665 39.4525 41.0675 37.4642 41.0675C36.2865 41.0675 35.2159 40.7826 34.2294 40.2127" fill="#662D91"/>
<path id="Vector_2" d="M54.0359 37.9179C54.9307 37.017 55.3742 35.9235 55.3742 34.6529C55.3742 33.3823 54.9307 32.2888 54.0359 31.3878C53.1412 30.4868 52.0706 30.0402 50.8011 30.0402C49.5317 30.0402 48.4534 30.4868 47.5663 31.3878C46.6716 32.2888 46.228 33.3823 46.228 34.6529C46.228 35.9235 46.6716 37.017 47.5663 37.9179C48.4534 38.8189 49.5317 39.2733 50.8011 39.2733C52.0706 39.2733 53.1412 38.8189 54.0359 37.9179ZM50.8011 41.0983C49.6234 41.0983 48.5528 40.8057 47.5663 40.2281C46.5798 39.6506 45.7998 38.8805 45.2262 37.8871C44.6527 36.9015 44.3621 35.8234 44.3621 34.6529C44.3621 33.4824 44.6527 32.4043 45.2262 31.4186C45.7921 30.4329 46.5721 29.6475 47.5663 29.0776C48.5528 28.5001 49.6234 28.2228 50.8011 28.2228C51.9788 28.2228 53.0571 28.5001 54.0436 29.0776C55.0301 29.6475 55.8101 30.4329 56.3837 31.4186C56.9572 32.4043 57.2325 33.4824 57.2325 34.6529C57.2325 35.8234 56.9572 36.9015 56.3837 37.8871C55.8101 38.8805 55.0301 39.6583 54.0436 40.2281C53.0571 40.798 51.9711 41.0983 50.8011 41.0983Z" fill="#662D91"/>
<path id="Vector_3" d="M60.7122 40.8596C60.3986 40.8596 60.238 40.6979 60.238 40.3821V28.939C60.238 28.6233 60.3986 28.4616 60.7122 28.4616H61.6222C61.9357 28.4616 62.0963 28.6233 62.0963 28.939V29.6089C62.0963 30.0402 62.3028 30.1249 62.6164 29.8092C63.3964 28.939 64.49 28.4616 65.9047 28.3691C66.2412 28.346 66.4094 28.5001 66.4094 28.8235V29.6706C66.4094 29.9478 66.2259 30.1634 65.9353 30.1711C63.3734 30.2789 62.0963 31.5803 62.0963 34.0753V40.3898C62.0963 40.7056 61.9357 40.8673 61.6222 40.8673H60.7122V40.8596Z" fill="#662D91"/>
<path id="Vector_4" d="M77.7428 33.3515C78.0793 33.3515 78.2552 33.1281 78.1175 32.797C77.7657 31.9268 77.2075 31.2261 76.4504 30.7024C75.6857 30.1788 74.8215 29.917 73.858 29.917C72.8944 29.917 72.0226 30.1711 71.2502 30.7024C70.4702 31.2261 69.9119 31.9191 69.5602 32.797C69.4225 33.1281 69.606 33.3515 69.9425 33.3515H77.7351H77.7428ZM67.4418 34.6529C67.4418 33.4824 67.7172 32.4043 68.2907 31.4186C68.8643 30.4329 69.629 29.6475 70.6155 29.0776C71.602 28.5001 72.6726 28.2228 73.8503 28.2228C77.3069 28.1689 80.2129 31.0259 80.2588 34.3371V34.3834C80.2511 34.676 80.037 34.8608 79.7617 34.8608H69.6749C69.3613 34.8608 69.1778 35.0456 69.2313 35.3613C69.3843 36.5241 69.8966 37.479 70.7761 38.2414C71.6479 39.0037 72.6726 39.3888 73.8503 39.3888C75.2956 39.3888 76.6186 38.7573 77.4904 37.6407C77.6893 37.3943 77.911 37.3327 78.1634 37.4405L78.8517 37.7331C79.1881 37.8871 79.257 38.0951 79.0658 38.38C77.8881 40.0664 76.0068 41.0829 73.8732 41.0829C70.3402 41.1522 67.373 38.1336 67.4418 34.6375" fill="#662D91"/>
<path id="Vector_5" d="M84.763 40.8596C84.503 40.8596 84.3806 40.7287 84.3806 40.4746V28.8466C84.3806 28.5848 84.5106 28.4616 84.763 28.4616H85.5048C85.7648 28.4616 85.8872 28.5925 85.8872 28.8466V40.4746C85.8872 40.7287 85.7572 40.8596 85.5048 40.8596H84.763ZM85.9636 24.6497C85.7266 24.8808 85.4513 24.9963 85.1377 24.9963C84.8242 24.9963 84.5412 24.8808 84.3042 24.6497C84.0671 24.4187 83.9524 24.1415 83.9524 23.8258C83.9524 23.5101 84.0671 23.2174 84.3042 22.9864C84.5412 22.7554 84.8165 22.6399 85.1377 22.6399C85.4589 22.6399 85.7342 22.7554 85.9636 22.9864C86.1931 23.2174 86.3154 23.4946 86.3154 23.8258C86.3154 24.1569 86.2007 24.4187 85.9636 24.6497Z" fill="#808285"/>
<path id="Vector_6" d="M93.4963 41.0983C92.6474 41.0983 91.8521 40.9597 91.095 40.6825C90.3379 40.4052 89.6956 40.0587 89.1602 39.6352C88.9538 39.4735 88.9232 39.2887 89.0761 39.0807L89.5044 38.4493C89.642 38.2414 89.8256 38.2183 90.0473 38.3877C90.4985 38.7573 91.0338 39.0576 91.6609 39.2964C92.288 39.5351 92.9151 39.6506 93.5422 39.6506C94.3757 39.6506 95.0334 39.4581 95.5228 39.0653C96.0123 38.6726 96.2646 38.1413 96.2646 37.4713C96.2646 37.2634 96.234 37.0632 96.1728 36.8784C96.1193 36.6935 96.0428 36.5395 95.9587 36.4009C95.8746 36.27 95.7522 36.1391 95.584 36.0236C95.4234 35.9004 95.2705 35.8003 95.1328 35.7233C94.9952 35.6463 94.8116 35.5615 94.5669 35.4768C94.3298 35.3921 94.131 35.3228 93.9704 35.2689C93.8175 35.215 93.5957 35.1534 93.3051 35.0764C92.938 34.9686 92.678 34.8916 92.5174 34.8454C92.3568 34.7992 92.1121 34.7145 91.7833 34.5913C91.4544 34.4681 91.2097 34.3525 91.0415 34.2524C90.8809 34.1523 90.6821 34.0137 90.445 33.8289C90.2156 33.6518 90.0397 33.467 89.925 33.2745C89.8103 33.0819 89.7109 32.8509 89.6267 32.5737C89.5426 32.2965 89.4967 31.9961 89.4967 31.6804C89.4967 30.6254 89.902 29.7861 90.705 29.1623C91.508 28.5386 92.4945 28.2228 93.6569 28.2228C94.9263 28.2228 96.0887 28.5848 97.1364 29.3009C97.3582 29.4472 97.3964 29.6244 97.2282 29.8246L96.777 30.4098C96.6317 30.6023 96.4482 30.6331 96.2264 30.4945C95.3928 29.9093 94.4904 29.6167 93.5422 29.6167C92.8004 29.6167 92.1886 29.7938 91.7145 30.1403C91.2403 30.4945 91.0033 30.9643 91.0033 31.5495C91.0033 31.8036 91.0568 32.0424 91.1715 32.2426C91.2862 32.4428 91.4162 32.6199 91.5692 32.7508C91.7221 32.8817 91.9439 33.0126 92.2421 33.1435C92.5404 33.2745 92.7927 33.3669 93.0069 33.4362C93.221 33.5055 93.5192 33.5902 93.9092 33.698C94.001 33.7211 94.0698 33.7442 94.1234 33.7596C94.4828 33.8597 94.7734 33.9521 95.0105 34.0368C95.2475 34.1215 95.5228 34.2293 95.844 34.3679C96.1576 34.5066 96.4252 34.6683 96.6317 34.8454C96.8382 35.0225 97.037 35.2227 97.2282 35.4614C97.4194 35.6925 97.5647 35.9774 97.6564 36.3008C97.7482 36.6242 97.7941 36.9862 97.7941 37.3866C97.7941 38.534 97.3964 39.4427 96.6087 40.1049C95.8211 40.7672 94.7734 41.0983 93.481 41.0983" fill="#808285"/>
<path id="Vector_7" d="M104.768 40.8596C103.767 40.8596 102.964 40.5824 102.344 40.0202C101.725 39.4581 101.419 38.6726 101.419 37.6561V30.2327C101.419 29.9786 101.289 29.8477 101.036 29.8477H99.7364C99.4764 29.8477 99.354 29.7168 99.354 29.4626V28.8543C99.354 28.6002 99.484 28.4693 99.7364 28.4693H101.036C101.296 28.4693 101.419 28.3384 101.419 28.0842V25.4352C101.419 25.1734 101.549 25.0348 101.801 25.0348H102.543C102.803 25.0348 102.925 25.1657 102.925 25.4352V28.0842C102.925 28.3461 103.055 28.4693 103.308 28.4693H105.877C106.137 28.4693 106.26 28.6002 106.26 28.8543V29.4626C106.26 29.7168 106.13 29.8477 105.877 29.8477H103.308C103.048 29.8477 102.925 29.9786 102.925 30.2327V37.4944C102.925 38.1259 103.109 38.6187 103.476 38.9806C103.843 39.3426 104.325 39.5197 104.921 39.5197H105.877C106.137 39.5197 106.26 39.6506 106.26 39.9201V40.4823C106.26 40.7364 106.13 40.8673 105.877 40.8673H104.761L104.768 40.8596Z" fill="#808285"/>
<path id="Vector_8" d="M114.389 39.6198C115.75 39.6198 116.912 39.1346 117.868 38.1644C118.824 37.1941 119.298 36.0236 119.298 34.6529C119.298 33.2822 118.817 32.1194 117.861 31.1568C116.905 30.1942 115.742 29.7091 114.389 29.7091C113.035 29.7091 111.873 30.1942 110.917 31.1568C109.961 32.1194 109.479 33.2899 109.479 34.6529C109.479 35.5538 109.701 36.3778 110.137 37.1402C110.573 37.9025 111.169 38.5032 111.926 38.9498C112.676 39.3965 113.502 39.6198 114.389 39.6198ZM114.205 41.0983C113.096 41.0983 112.064 40.8134 111.108 40.2358C110.152 39.6583 109.387 38.8805 108.822 37.8871C108.256 36.8938 107.973 35.8157 107.973 34.6529C107.973 33.4901 108.256 32.412 108.822 31.4263C109.387 30.4406 110.152 29.6552 111.108 29.0853C112.064 28.5078 113.096 28.2228 114.205 28.2228C115.161 28.2228 116.033 28.4154 116.836 28.7927C117.631 29.1777 118.312 29.7091 118.862 30.3867C118.985 30.5099 119.092 30.5561 119.176 30.5253C119.26 30.4945 119.306 30.3867 119.306 30.2096V28.8389C119.306 28.5848 119.436 28.4539 119.688 28.4539H120.43C120.69 28.4539 120.813 28.5848 120.813 28.8389V40.4669C120.813 40.7287 120.683 40.8519 120.43 40.8519H119.688C119.436 40.8519 119.306 40.721 119.306 40.4669V39.0961C119.306 38.9267 119.268 38.8189 119.199 38.7727C119.13 38.7265 119.031 38.765 118.924 38.8728C118.381 39.5659 117.7 40.1126 116.889 40.4977C116.071 40.8904 115.184 41.0829 114.213 41.0829" fill="#808285"/>
<path id="Vector_9" d="M125.47 40.8596C125.217 40.8596 125.087 40.7287 125.087 40.4746V28.8466C125.087 28.5925 125.217 28.4616 125.47 28.4616H126.212C126.464 28.4616 126.594 28.5925 126.594 28.8466V29.6398C126.594 29.8092 126.632 29.9093 126.709 29.9324C126.785 29.9555 126.885 29.9016 126.999 29.7707C127.817 28.7388 128.919 28.2228 130.318 28.2228C131.718 28.2228 132.857 28.6849 133.767 29.609C134.677 30.533 135.136 31.819 135.136 33.4516V40.4669C135.136 40.721 135.006 40.8519 134.738 40.8519H134.004C133.752 40.8519 133.622 40.721 133.622 40.4669V33.5594C133.622 32.2811 133.301 31.3031 132.658 30.6408C132.016 29.9786 131.175 29.6398 130.142 29.6398C129.11 29.6398 128.284 29.9786 127.611 30.6639C126.938 31.3493 126.602 32.2811 126.594 33.467V40.4669C126.594 40.721 126.464 40.8519 126.212 40.8519H125.47V40.8596Z" fill="#808285"/>
<path id="Vector_10" d="M145.498 39.6198C146.393 39.6198 147.211 39.3965 147.96 38.9498C148.71 38.5032 149.306 37.9025 149.742 37.1402C150.178 36.3778 150.4 35.5461 150.4 34.6529C150.4 33.2899 149.926 32.1194 148.962 31.1568C148.006 30.1942 146.851 29.7091 145.49 29.7091C144.129 29.7091 142.974 30.1942 142.018 31.1568C141.062 32.1194 140.581 33.2899 140.581 34.6529C140.581 36.0159 141.055 37.1941 142.011 38.1644C142.967 39.1346 144.121 39.6198 145.49 39.6198M145.681 41.0983C144.726 41.0983 143.846 40.9058 143.051 40.5285C142.248 40.1434 141.575 39.6198 141.032 38.9498C140.909 38.8189 140.802 38.765 140.718 38.7958C140.634 38.8266 140.588 38.9344 140.588 39.1115V40.4822C140.588 40.7441 140.458 40.8673 140.206 40.8673H139.464C139.212 40.8673 139.082 40.7364 139.082 40.4822V23.2713C139.082 23.0172 139.212 22.8863 139.464 22.8863H140.206C140.458 22.8863 140.588 23.0172 140.588 23.2713V30.225C140.588 30.4021 140.627 30.5099 140.718 30.5407C140.802 30.5715 140.909 30.5253 141.032 30.4021C141.575 29.7245 142.248 29.1931 143.051 28.8081C143.854 28.4231 144.733 28.2382 145.681 28.2382C146.79 28.2382 147.823 28.5232 148.779 29.1007C149.735 29.6706 150.499 30.456 151.065 31.4417C151.631 32.4274 151.914 33.5055 151.914 34.6683C151.914 35.8311 151.631 36.9092 151.065 37.9025C150.499 38.8959 149.735 39.6737 148.779 40.2512C147.823 40.8211 146.79 41.1137 145.681 41.1137" fill="#808285"/>
<path id="Vector_11" d="M163.163 39.9355C162.268 40.7056 161.106 41.0983 159.676 41.0983C158.246 41.0983 157.076 40.7133 156.189 39.9355C155.294 39.1655 154.851 38.0951 154.851 36.7397V28.8466C154.851 28.5925 154.981 28.4616 155.248 28.4616H155.944C156.204 28.4616 156.327 28.5925 156.327 28.8466V36.7012C156.327 37.6484 156.64 38.3723 157.259 38.8651C157.879 39.3657 158.69 39.6121 159.676 39.6121C160.663 39.6121 161.481 39.3657 162.1 38.8651C162.72 38.3646 163.026 37.6407 163.026 36.7012V28.8466C163.026 28.5925 163.156 28.4616 163.408 28.4616H164.119C164.379 28.4616 164.502 28.5925 164.502 28.8466V36.7397C164.502 38.0951 164.05 39.1655 163.163 39.9355Z" fill="#808285"/>
<path id="Vector_12" d="M168.876 22.8709H169.618C169.832 22.8709 170 23.0403 170 23.2559V40.4746C170 40.6902 169.832 40.8596 169.618 40.8596H168.876C168.662 40.8596 168.493 40.6902 168.493 40.4746V23.2559C168.493 23.0403 168.662 22.8709 168.876 22.8709Z" fill="#808285"/>
<g id="Clip path group">
<mask id="mask0_1797_128" style="mask-type:luminance" maskUnits="userSpaceOnUse" x="-1" y="0" width="62" height="64">
<g id="clippath">
<path id="Vector_13" d="M5.49818 13.9767C-0.581438 22.8555 -1.67501 34.5913 2.49279 44.4943C6.53822 54.1201 15.3097 61.3972 25.5265 63.3993C38.4734 65.9406 51.6651 60.1343 58.7388 48.953C59.9089 47.1048 56.9953 45.403 55.8329 47.2434C50.1509 56.2301 39.9647 61.3587 29.4114 60.5347C20.1275 59.8109 11.6313 54.251 7.0353 46.1268C2.30925 37.7639 2.11807 27.2064 6.59175 18.6971C10.9431 10.4113 19.3169 4.51257 28.6313 3.54999C40.3088 2.34099 51.5045 8.4168 57.0029 18.8358C58.02 20.7686 60.9336 19.0514 59.9089 17.1262C54.5175 6.90747 43.9107 0.24642 32.4015 0C32.1873 0 31.9656 0 31.7514 0C21.3128 0 11.4172 5.32114 5.49818 13.9767Z" fill="white"/>
</g>
</mask>
<g mask="url(#mask0_1797_128)">
<g id="Group_2">
<path id="Vector_14" d="M60.9262 0H-1.6748V65.9483H60.9262V0Z" fill="url(#paint0_linear_1797_128)"/>
</g>
</g>
</g>
<g id="Clip path group_2">
<mask id="mask1_1797_128" style="mask-type:luminance" maskUnits="userSpaceOnUse" x="14" y="12" width="46" height="49">
<g id="clippath-1">
<path id="Vector_15" d="M38.3743 12.2748C25.3586 12.3903 14.4688 23.1019 14.3694 36.27V36.6242C14.4688 49.7923 25.4962 60.7503 38.5961 60.6194C46.8858 60.5347 54.472 56.076 58.8615 49.0454C60.0239 47.1895 57.1103 45.4877 55.9555 47.3358C52.5831 52.734 46.924 56.4765 40.5768 57.1233C35.0477 57.6855 29.3658 56.0221 25.1215 52.3874C16.6406 45.1334 15.2488 31.9422 22.4297 23.2482C26.3833 18.4584 32.2029 15.7247 38.3743 15.6708C40.5309 15.6554 40.5462 12.2825 38.3896 12.2825H38.3743" fill="white"/>
</g>
</mask>
<g mask="url(#mask1_1797_128)">
<g id="Group_3">
<path id="Vector_16" d="M60.0239 12.2748H14.3694V60.7503H60.0239V12.2748Z" fill="url(#paint1_linear_1797_128)"/>
</g>
</g>
</g>
<g id="Clip path group_3">
<mask id="mask2_1797_128" style="mask-type:luminance" maskUnits="userSpaceOnUse" x="7" y="32" width="53" height="30">
<g id="clippath-2">
<path id="Vector_17" d="M7.35669 33.8751C7.42552 43.1621 11.9604 51.8561 19.5542 57.131C27.4844 62.6447 37.923 63.4841 46.7022 59.6029C51.8106 57.3466 56.0778 53.4963 59.0679 48.7835C60.2379 46.9354 57.3243 45.2335 56.1619 47.074C51.3212 54.7053 42.7485 59.1332 33.7629 58.6096C25.8479 58.1475 18.4683 53.6118 14.3387 46.8122C11.968 42.9003 10.7597 38.457 10.7292 33.8828C10.7215 32.7893 9.87266 32.2426 9.03145 32.2426C8.19025 32.2426 7.34904 32.7893 7.36434 33.8828" fill="white"/>
</g>
</mask>
<g mask="url(#mask2_1797_128)">
<g id="Group_4">
<path id="Vector_18" d="M60.238 32.2426H7.34912V63.4918H60.238V32.2426Z" fill="url(#paint2_linear_1797_128)"/>
</g>
</g>
</g>
</g>
</g>
<defs>
<linearGradient id="paint0_linear_1797_128" x1="0.341336" y1="31.5837" x2="57.4133" y2="31.5837" gradientUnits="userSpaceOnUse">
<stop stop-color="#F37021"/>
<stop offset="1" stop-color="#6F2C91"/>
</linearGradient>
<linearGradient id="paint1_linear_1797_128" x1="17.4502" y1="37.816" x2="59.0669" y2="37.816" gradientUnits="userSpaceOnUse">
<stop stop-color="#F37021"/>
<stop offset="1" stop-color="#6F2C91"/>
</linearGradient>
<linearGradient id="paint2_linear_1797_128" x1="11.8496" y1="50.366" x2="60.6777" y2="50.366" gradientUnits="userSpaceOnUse">
<stop stop-color="#F37021"/>
<stop offset="1" stop-color="#6F2C91"/>
</linearGradient>
</defs>
</svg>
