<svg width="234" height="89" viewBox="0 0 234 89" fill="none" xmlns="http://www.w3.org/2000/svg">
<g id="Layer 1">
<g id="Group">
<path id="Vector" d="M47.1158 55.3578C45.7579 54.5742 44.6842 53.5048 43.8947 52.1495C43.1053 50.7942 42.7053 49.3118 42.7053 47.7024C42.7053 46.0929 43.1053 44.5894 43.8947 43.2447C44.6737 41.8894 45.7474 40.8305 47.1158 40.0364C48.4737 39.2423 49.9474 38.8611 51.5684 38.8611C54.3053 38.8611 56.7895 40.0893 58.4526 42.0799C58.7053 42.4188 58.6632 42.7258 58.3263 43.0117L57.2737 43.7635C56.9368 44.0388 56.6316 43.9859 56.3579 43.6364C55.1579 42.1011 53.5579 41.3494 51.5684 41.3494C49.7895 41.3494 48.2842 41.9635 47.0842 43.1706C45.8842 44.3988 45.2737 45.9129 45.2737 47.6918C45.2737 49.4706 45.8842 50.9742 47.0842 52.1813C48.2842 53.4095 49.7895 54.0236 51.5684 54.0236C53.5684 54.0236 55.1579 53.2719 56.3579 51.7366C56.6316 51.3871 56.9368 51.3342 57.2737 51.6095L58.3263 52.3719C58.6632 52.626 58.7263 52.933 58.4842 53.2719C56.8211 55.2837 54.3053 56.5225 51.5684 56.5225C49.9474 56.5225 48.4737 56.1307 47.1158 55.3472" fill="white"/>
<path id="Vector_2" d="M74.379 52.1919C75.6105 50.953 76.2211 49.4495 76.2211 47.7024C76.2211 45.9553 75.6105 44.4517 74.379 43.2129C73.1474 41.9741 71.6737 41.3599 69.9263 41.3599C68.179 41.3599 66.6948 41.9741 65.4737 43.2129C64.2421 44.4517 63.6316 45.9553 63.6316 47.7024C63.6316 49.4495 64.2421 50.953 65.4737 52.1919C66.6948 53.4307 68.179 54.0554 69.9263 54.0554C71.6737 54.0554 73.1474 53.4307 74.379 52.1919ZM69.9263 56.5648C68.3053 56.5648 66.8316 56.1625 65.4737 55.3684C64.1158 54.5742 63.0421 53.5154 62.2526 52.1495C61.4632 50.7942 61.0632 49.3118 61.0632 47.7024C61.0632 46.0929 61.4632 44.6106 62.2526 43.2553C63.0316 41.8999 64.1053 40.8199 65.4737 40.0364C66.8316 39.2423 68.3053 38.8611 69.9263 38.8611C71.5474 38.8611 73.0316 39.2423 74.3895 40.0364C75.7474 40.8199 76.8211 41.8999 77.6105 43.2553C78.4 44.6106 78.779 46.0929 78.779 47.7024C78.779 49.3118 78.4 50.7942 77.6105 52.1495C76.8211 53.5154 75.7474 54.5848 74.3895 55.3684C73.0316 56.1519 71.5369 56.5648 69.9263 56.5648Z" fill="white"/>
<path id="Vector_3" d="M83.5684 56.2367C83.1368 56.2367 82.9158 56.0143 82.9158 55.5802V39.8459C82.9158 39.4117 83.1368 39.1894 83.5684 39.1894H84.821C85.2526 39.1894 85.4737 39.4117 85.4737 39.8459V40.767C85.4737 41.36 85.7579 41.4765 86.1895 41.0423C87.2631 39.8459 88.7684 39.1894 90.7158 39.0623C91.1789 39.0305 91.4105 39.2423 91.4105 39.687V40.8517C91.4105 41.2329 91.1579 41.5294 90.7579 41.54C87.2316 41.6882 85.4737 43.4777 85.4737 46.9083V55.5908C85.4737 56.0249 85.2526 56.2472 84.821 56.2472H83.5684V56.2367Z" fill="white"/>
<path id="Vector_4" d="M107.011 45.913C107.474 45.913 107.716 45.6059 107.526 45.1506C107.042 43.9541 106.274 42.9906 105.232 42.2706C104.179 41.5506 102.99 41.1906 101.663 41.1906C100.337 41.1906 99.1369 41.54 98.0737 42.2706C97 42.9906 96.2316 43.9436 95.7474 45.1506C95.5579 45.6059 95.8106 45.913 96.2737 45.913H107H107.011ZM92.8316 47.7024C92.8316 46.093 93.2106 44.6106 94.0001 43.2553C94.7895 41.9 95.8422 40.82 97.2 40.0364C98.5579 39.2423 100.032 38.8611 101.653 38.8611C106.411 38.787 110.411 42.7153 110.474 47.2683V47.3318C110.463 47.7342 110.168 47.9883 109.79 47.9883H95.9053C95.4737 47.9883 95.2211 48.2424 95.2948 48.6766C95.5053 50.2754 96.2106 51.5884 97.4211 52.6366C98.6211 53.6849 100.032 54.2143 101.653 54.2143C103.642 54.2143 105.463 53.346 106.663 51.8107C106.937 51.4719 107.242 51.3872 107.59 51.5354L108.537 51.9378C109 52.1496 109.095 52.4354 108.832 52.8272C107.211 55.1461 104.621 56.5437 101.684 56.5437C96.8211 56.639 92.7369 52.4884 92.8316 47.6813" fill="white"/>
<path id="Vector_5" d="M116.674 56.2367C116.316 56.2367 116.147 56.0567 116.147 55.7073V39.7188C116.147 39.3588 116.326 39.1894 116.674 39.1894H117.695C118.053 39.1894 118.221 39.3694 118.221 39.7188V55.7073C118.221 56.0567 118.042 56.2367 117.695 56.2367H116.674ZM118.326 33.9481C118 34.2658 117.621 34.4246 117.19 34.4246C116.758 34.4246 116.368 34.2658 116.042 33.9481C115.716 33.6305 115.558 33.2493 115.558 32.8152C115.558 32.3811 115.716 31.9787 116.042 31.661C116.368 31.3434 116.747 31.1846 117.19 31.1846C117.632 31.1846 118.011 31.3434 118.326 31.661C118.642 31.9787 118.811 32.3599 118.811 32.8152C118.811 33.2705 118.653 33.6305 118.326 33.9481Z" fill="white"/>
<path id="Vector_6" d="M128.695 56.5648C127.526 56.5648 126.432 56.3743 125.39 55.9931C124.347 55.6119 123.463 55.1354 122.726 54.5531C122.442 54.3307 122.4 54.0766 122.611 53.7907L123.2 52.9224C123.39 52.6366 123.642 52.6048 123.947 52.8377C124.568 53.346 125.305 53.7589 126.168 54.0872C127.032 54.4154 127.895 54.5742 128.758 54.5742C129.905 54.5742 130.811 54.3095 131.484 53.7695C132.158 53.2295 132.505 52.4989 132.505 51.5777C132.505 51.2918 132.463 51.0165 132.379 50.7624C132.305 50.5083 132.2 50.2965 132.084 50.1059C131.968 49.9259 131.8 49.7459 131.568 49.5871C131.347 49.4177 131.137 49.28 130.947 49.1742C130.758 49.0683 130.505 48.9518 130.168 48.8353C129.842 48.7189 129.568 48.6236 129.347 48.5494C129.137 48.4753 128.832 48.3906 128.432 48.2847C127.926 48.1365 127.568 48.0306 127.347 47.9671C127.126 47.9036 126.79 47.7871 126.337 47.6177C125.884 47.4483 125.547 47.2894 125.316 47.1518C125.095 47.0141 124.821 46.8235 124.495 46.5694C124.179 46.3259 123.937 46.0718 123.779 45.8071C123.621 45.5423 123.484 45.2247 123.368 44.8435C123.253 44.4623 123.19 44.0494 123.19 43.6153C123.19 42.1647 123.747 41.0105 124.853 40.1529C125.958 39.2952 127.316 38.8611 128.916 38.8611C130.663 38.8611 132.263 39.3587 133.705 40.3435C134.011 40.5446 134.063 40.7882 133.832 41.0635L133.211 41.8682C133.011 42.1329 132.758 42.1752 132.453 41.9847C131.305 41.1799 130.063 40.7776 128.758 40.7776C127.737 40.7776 126.895 41.0211 126.242 41.4976C125.59 41.9847 125.263 42.6305 125.263 43.4353C125.263 43.7847 125.337 44.1129 125.495 44.3882C125.653 44.6635 125.832 44.907 126.042 45.087C126.253 45.267 126.558 45.4471 126.968 45.6271C127.379 45.8071 127.726 45.9341 128.021 46.0294C128.316 46.1247 128.726 46.2412 129.263 46.3894C129.39 46.4212 129.484 46.4529 129.558 46.4741C130.053 46.6118 130.453 46.7388 130.779 46.8553C131.105 46.9718 131.484 47.12 131.926 47.3106C132.358 47.5012 132.726 47.7236 133.011 47.9671C133.295 48.2106 133.568 48.4859 133.832 48.8142C134.095 49.1318 134.295 49.5236 134.421 49.9683C134.547 50.413 134.611 50.9107 134.611 51.4612C134.611 53.0389 134.063 54.2883 132.979 55.1989C131.895 56.1096 130.453 56.5648 128.674 56.5648" fill="white"/>
<path id="Vector_7" d="M144.211 56.2367C142.832 56.2367 141.726 55.8555 140.874 55.0825C140.021 54.3096 139.6 53.2296 139.6 51.8319V41.6247C139.6 41.2753 139.421 41.0953 139.074 41.0953H137.284C136.926 41.0953 136.758 40.9153 136.758 40.5659V39.7294C136.758 39.38 136.937 39.2 137.284 39.2H139.074C139.432 39.2 139.6 39.02 139.6 38.6705V35.0281C139.6 34.6681 139.779 34.4775 140.126 34.4775H141.147C141.505 34.4775 141.674 34.6575 141.674 35.0281V38.6705C141.674 39.0305 141.853 39.2 142.2 39.2H145.737C146.095 39.2 146.263 39.38 146.263 39.7294V40.5659C146.263 40.9153 146.084 41.0953 145.737 41.0953H142.2C141.842 41.0953 141.674 41.2753 141.674 41.6247V51.6095C141.674 52.4778 141.926 53.1554 142.432 53.6531C142.937 54.1507 143.6 54.3943 144.421 54.3943H145.737C146.095 54.3943 146.263 54.5743 146.263 54.9449V55.7178C146.263 56.0672 146.084 56.2472 145.737 56.2472H144.2L144.211 56.2367Z" fill="white"/>
<path id="Vector_8" d="M157.453 54.5319C159.326 54.5319 160.926 53.8648 162.242 52.5307C163.558 51.1965 164.211 49.5871 164.211 47.7024C164.211 45.8176 163.547 44.2188 162.232 42.8953C160.916 41.5717 159.316 40.9046 157.453 40.9046C155.59 40.9046 153.99 41.5717 152.674 42.8953C151.358 44.2188 150.695 45.8282 150.695 47.7024C150.695 48.9412 151 50.0742 151.6 51.1224C152.2 52.1707 153.021 52.9966 154.063 53.6107C155.095 54.2248 156.232 54.5319 157.453 54.5319ZM157.2 56.5648C155.674 56.5648 154.253 56.1731 152.937 55.379C151.621 54.5848 150.568 53.5154 149.79 52.1495C149.011 50.7836 148.621 49.3012 148.621 47.7024C148.621 46.1035 149.011 44.6212 149.79 43.2658C150.568 41.9105 151.621 40.8305 152.937 40.047C154.253 39.2529 155.674 38.8611 157.2 38.8611C158.516 38.8611 159.716 39.1258 160.821 39.6446C161.916 40.174 162.853 40.9046 163.611 41.8364C163.779 42.0058 163.926 42.0694 164.042 42.027C164.158 41.9847 164.221 41.8364 164.221 41.5929V39.7082C164.221 39.3587 164.4 39.1787 164.747 39.1787H165.768C166.126 39.1787 166.295 39.3587 166.295 39.7082V55.6966C166.295 56.0566 166.116 56.226 165.768 56.226H164.747C164.4 56.226 164.221 56.046 164.221 55.6966V53.8119C164.221 53.5789 164.168 53.4307 164.074 53.3672C163.979 53.3036 163.842 53.3566 163.695 53.5048C162.947 54.4578 162.011 55.2095 160.895 55.739C159.768 56.279 158.547 56.5437 157.211 56.5437" fill="white"/>
<path id="Vector_9" d="M172.705 56.2366C172.358 56.2366 172.179 56.0566 172.179 55.7072V39.7187C172.179 39.3693 172.358 39.1893 172.705 39.1893H173.726C174.074 39.1893 174.253 39.3693 174.253 39.7187V40.8093C174.253 41.0423 174.305 41.1799 174.411 41.2117C174.516 41.2435 174.653 41.1693 174.811 40.9893C175.937 39.5705 177.453 38.8611 179.379 38.8611C181.305 38.8611 182.874 39.4964 184.126 40.767C185.379 42.0376 186.011 43.8059 186.011 46.0506V55.6966C186.011 56.046 185.832 56.226 185.463 56.226H184.453C184.105 56.226 183.926 56.046 183.926 55.6966V46.1988C183.926 44.4412 183.484 43.0964 182.6 42.1858C181.716 41.2752 180.558 40.8093 179.137 40.8093C177.716 40.8093 176.579 41.2752 175.653 42.2176C174.726 43.16 174.263 44.4412 174.253 46.0718V55.6966C174.253 56.046 174.074 56.226 173.726 56.226H172.705V56.2366Z" fill="white"/>
<path id="Vector_10" d="M200.274 54.5319C201.505 54.5319 202.632 54.2248 203.663 53.6107C204.695 52.9965 205.516 52.1707 206.116 51.1224C206.716 50.0742 207.021 48.9306 207.021 47.7024C207.021 45.8282 206.368 44.2188 205.042 42.8952C203.726 41.5717 202.137 40.9046 200.263 40.9046C198.389 40.9046 196.8 41.5717 195.484 42.8952C194.168 44.2188 193.505 45.8282 193.505 47.7024C193.505 49.5765 194.158 51.1965 195.474 52.5307C196.789 53.8648 198.379 54.5319 200.263 54.5319M200.526 56.5648C199.211 56.5648 198 56.3001 196.905 55.7813C195.8 55.2519 194.874 54.5319 194.126 53.6107C193.958 53.4307 193.81 53.3566 193.695 53.3989C193.579 53.4413 193.516 53.5895 193.516 53.833V55.7178C193.516 56.0778 193.337 56.2472 192.989 56.2472H191.968C191.621 56.2472 191.442 56.0672 191.442 55.7178V32.0527C191.442 31.7033 191.621 31.5233 191.968 31.5233H192.989C193.337 31.5233 193.516 31.7033 193.516 32.0527V41.614C193.516 41.8576 193.568 42.0058 193.695 42.0482C193.81 42.0905 193.958 42.027 194.126 41.8576C194.874 40.9258 195.8 40.1952 196.905 39.6658C198.011 39.1364 199.221 38.8822 200.526 38.8822C202.053 38.8822 203.474 39.274 204.789 40.0681C206.105 40.8517 207.158 41.9317 207.937 43.287C208.716 44.6423 209.105 46.1247 209.105 47.7235C209.105 49.3224 208.716 50.8048 207.937 52.1707C207.158 53.5366 206.105 54.606 204.789 55.4001C203.474 56.1836 202.053 56.586 200.526 56.586" fill="white"/>
<path id="Vector_11" d="M224.589 54.966C223.358 56.0249 221.758 56.5649 219.789 56.5649C217.821 56.5649 216.21 56.0354 214.989 54.966C213.758 53.9072 213.147 52.4354 213.147 50.5718V39.7187C213.147 39.3693 213.326 39.1893 213.695 39.1893H214.653C215.01 39.1893 215.179 39.3693 215.179 39.7187V50.5189C215.179 51.8213 215.61 52.8166 216.463 53.4942C217.316 54.1825 218.432 54.5213 219.789 54.5213C221.147 54.5213 222.274 54.1825 223.126 53.4942C223.979 52.806 224.4 51.8107 224.4 50.5189V39.7187C224.4 39.3693 224.579 39.1893 224.926 39.1893H225.905C226.263 39.1893 226.432 39.3693 226.432 39.7187V50.5718C226.432 52.4354 225.81 53.9072 224.589 54.966Z" fill="white"/>
<path id="Vector_12" d="M232.453 31.5022H233.474C233.768 31.5022 234 31.7351 234 32.0316V55.7072C234 56.0037 233.768 56.2366 233.474 56.2366H232.453C232.158 56.2366 231.926 56.0037 231.926 55.7072V32.0316C231.926 31.7351 232.158 31.5022 232.453 31.5022Z" fill="white"/>
<g id="Clip path group">
<mask id="mask0_2908_795" style="mask-type:luminance" maskUnits="userSpaceOnUse" x="-1" y="0" width="84" height="89">
<g id="clippath">
<path id="Vector_13" d="M7.56806 19.2726C-0.800362 31.481 -2.30563 47.6177 3.43122 61.2343C8.99964 74.4698 21.0733 84.4758 35.1365 87.2288C52.9575 90.723 71.1154 82.7393 80.8523 67.365C82.4628 64.8238 78.4523 62.4838 76.8523 65.0144C69.0312 77.371 55.0102 84.4229 40.4838 83.2899C27.7049 82.2946 16.0102 74.6498 9.68385 63.4791C3.17858 51.9801 2.91543 37.4634 9.07332 25.7633C15.0628 14.3702 26.5891 6.25948 39.4102 4.93593C55.4838 3.27355 70.8944 11.6278 78.4628 25.9539C79.8628 28.6115 83.8733 26.2503 82.4628 23.6032C75.0417 9.55246 60.4417 0.393516 44.5996 0.0546875C44.3049 0.0546875 43.9996 0.0546875 43.7049 0.0546875C29.3365 0.0546875 15.7154 7.37126 7.56806 19.2726Z" fill="white"/>
</g>
</mask>
<g mask="url(#mask0_2908_795)">
<g id="Group_2">
<path id="Vector_14" d="M83.8632 0.0546875H-2.30524V90.7335H83.8632V0.0546875Z" fill="white"/>
</g>
</g>
</g>
<g id="Clip path group_2">
<mask id="mask1_2908_795" style="mask-type:luminance" maskUnits="userSpaceOnUse" x="19" y="16" width="63" height="68">
<g id="clippath-1">
<path id="Vector_15" d="M52.8211 16.9326C34.9053 17.0914 19.9158 31.8199 19.779 49.926V50.4131C19.9158 68.5192 35.0948 83.5865 53.1264 83.4065C64.5369 83.29 74.979 77.1593 81.0211 67.4921C82.6211 64.9403 78.6106 62.6003 77.0211 65.1415C72.379 72.564 64.5895 77.7099 55.8527 78.5993C48.2422 79.3723 40.4211 77.0852 34.579 72.0875C22.9053 62.1132 20.9895 43.9753 30.8737 32.0211C36.3158 25.4351 44.3264 21.6762 52.8211 21.6021C55.7895 21.5809 55.8106 16.9432 52.8422 16.9432H52.8211" fill="white"/>
</g>
</mask>
<g mask="url(#mask1_2908_795)">
<g id="Group_3">
<path id="Vector_16" d="M82.6211 16.9326H19.779V83.5865H82.6211V16.9326Z" fill="white"/>
</g>
</g>
</g>
<g id="Clip path group_3">
<mask id="mask2_2908_795" style="mask-type:luminance" maskUnits="userSpaceOnUse" x="10" y="44" width="72" height="42">
<g id="clippath-2">
<path id="Vector_17" d="M10.1263 46.6329C10.2211 59.4025 16.4632 71.3568 26.9158 78.6098C37.8316 86.1911 52.2 87.3452 64.2842 82.0087C71.3158 78.9063 77.1895 73.6121 81.3053 67.132C82.9158 64.5908 78.9053 62.2508 77.3053 64.7814C70.6421 75.2745 58.8421 81.3628 46.4737 80.6428C35.579 80.0075 25.4211 73.7709 19.7369 64.4214C16.4737 59.0425 14.8106 52.933 14.7684 46.6435C14.7579 45.14 13.5895 44.3882 12.4316 44.3882C11.2737 44.3882 10.1158 45.14 10.1369 46.6435" fill="white"/>
</g>
</mask>
<g mask="url(#mask2_2908_795)">
<g id="Group_4">
<path id="Vector_18" d="M82.9158 44.3882H10.1158V87.3558H82.9158V44.3882Z" fill="white"/>
</g>
</g>
</g>
</g>
</g>
</svg>
