<svg width="602" height="635" viewBox="0 0 602 635" fill="none" xmlns="http://www.w3.org/2000/svg">
<path d="M558.86 468.213C501.98 557.197 400.008 607.979 294.361 599.821C201.423 592.653 116.369 537.6 70.3594 457.156C22.9716 374.349 21.1342 269.81 65.9192 185.553C109.556 103.432 193.384 45.024 286.629 35.4927C403.529 23.5214 515.606 83.6828 570.65 186.849C580.832 205.912 609.999 188.984 599.741 169.922C545.769 68.7378 439.587 2.78138 324.371 0.341375C217.499 -1.79363 115.527 51.2765 55.0483 138.736C-5.81331 226.652 -16.7608 342.857 24.962 440.915C65.4599 536.228 153.269 608.284 255.547 628.186C385.156 653.348 517.214 595.856 588.028 485.14C599.741 466.84 570.573 449.989 558.937 468.213" fill="#6F2B90"/>
<path d="M558.339 468.28C524.545 521.812 467.839 558.926 404.235 565.341C348.832 570.916 291.895 554.421 249.365 518.376C164.382 446.439 150.435 315.624 222.391 229.406C262.009 181.906 320.325 154.796 382.166 154.262C403.852 154.109 403.929 120.431 382.166 120.661C251.204 121.806 141.623 228.948 141.623 360.374C141.623 491.801 252.584 601.386 384.388 600.088C467.456 599.248 543.473 555.032 587.459 485.309C599.03 466.905 569.834 450.028 558.339 468.356" fill="#6F2B90"/>
<path d="M559.166 466.467C510.599 542.149 424.513 586.061 334.438 580.868C255.027 576.286 180.988 531.304 139.556 463.87C115.771 425.151 103.649 381.009 103.342 335.646C103.188 314.033 69.3524 313.957 69.5059 335.646C70.1964 427.747 115.694 513.892 191.883 566.281C271.447 620.962 376.177 629.286 464.257 590.796C515.51 568.42 558.322 530.235 588.322 483.497C600.061 465.168 570.828 448.291 559.166 466.543" fill="#6F2B90"/>
</svg>
