<svg width="602" height="635" viewBox="0 0 602 635" fill="none" xmlns="http://www.w3.org/2000/svg">
<mask id="path-1-inside-1_3488_441" fill="white">
<path d="M558.86 468.453C501.98 557.437 400.008 608.22 294.361 600.061C201.423 592.893 116.369 537.841 70.3594 457.397C22.9716 374.589 21.1342 270.05 65.9192 185.793C109.556 103.672 193.384 45.2642 286.629 35.733C403.529 23.7617 515.607 83.9231 570.65 187.09C580.832 206.152 609.999 189.225 599.741 170.162C545.769 68.978 439.587 3.02162 324.371 0.58161C217.499 -1.5534 115.527 51.5167 55.0483 138.976C-5.81331 226.892 -16.7608 343.098 24.962 441.155C65.4599 536.468 153.269 608.525 255.547 628.426C385.156 653.588 517.214 596.096 588.028 485.38C599.741 467.08 570.573 450.229 558.937 468.453"/>
</mask>
<path d="M558.86 468.453C501.98 557.437 400.008 608.22 294.361 600.061C201.423 592.893 116.369 537.841 70.3594 457.397C22.9716 374.589 21.1342 270.05 65.9192 185.793C109.556 103.672 193.384 45.2642 286.629 35.733C403.529 23.7617 515.607 83.9231 570.65 187.09C580.832 206.152 609.999 189.225 599.741 170.162C545.769 68.978 439.587 3.02162 324.371 0.58161C217.499 -1.5534 115.527 51.5167 55.0483 138.976C-5.81331 226.892 -16.7608 343.098 24.962 441.155C65.4599 536.468 153.269 608.525 255.547 628.426C385.156 653.588 517.214 596.096 588.028 485.38C599.741 467.08 570.573 450.229 558.937 468.453" fill="white"/>
<path d="M294.361 600.061L294.515 598.067L294.515 598.067L294.361 600.061ZM70.3594 457.397L72.0955 456.404L72.0953 456.403L70.3594 457.397ZM65.9192 185.793L67.6852 186.732L67.6854 186.732L65.9192 185.793ZM286.629 35.733L286.832 37.7226L286.833 37.7226L286.629 35.733ZM570.65 187.09L568.885 188.031L568.886 188.032L570.65 187.09ZM599.741 170.162L597.976 171.103L597.98 171.11L599.741 170.162ZM324.371 0.58161L324.413 -1.41794L324.411 -1.41799L324.371 0.58161ZM55.0483 138.976L56.6928 140.114L56.6933 140.113L55.0483 138.976ZM24.962 441.155L26.8027 440.373L26.8024 440.372L24.962 441.155ZM255.547 628.426L255.165 630.389L255.166 630.389L255.547 628.426ZM588.028 485.38L586.344 484.302L586.343 484.303L588.028 485.38ZM557.175 467.376C500.693 555.737 399.429 606.169 294.515 598.067L294.207 602.055C400.587 610.27 503.266 559.137 560.546 469.53L557.175 467.376ZM294.515 598.067C202.252 590.951 117.784 536.286 72.0955 456.404L68.6234 458.39C114.955 539.396 200.593 594.835 294.207 602.055L294.515 598.067ZM72.0953 456.403C25.0469 374.189 23.2242 270.379 67.6852 186.732L64.1532 184.855C19.0443 269.721 20.8962 374.989 68.6236 458.39L72.0953 456.403ZM67.6854 186.732C111.021 105.178 194.276 47.1835 286.832 37.7226L286.425 33.7433C192.493 43.3449 108.091 102.166 64.1531 184.855L67.6854 186.732ZM286.833 37.7226C402.921 25.8344 514.223 85.5779 568.885 188.031L572.414 186.148C516.99 82.2683 404.137 21.6889 286.425 33.7434L286.833 37.7226ZM568.886 188.032C571.701 193.302 575.924 196.211 580.544 197.129C585.103 198.035 589.875 196.971 593.865 194.652C597.858 192.332 601.203 188.679 602.834 184.216C604.482 179.706 604.336 174.48 601.502 169.214L597.98 171.11C600.276 175.376 600.33 179.413 599.077 182.843C597.806 186.32 595.145 189.282 591.856 191.194C588.564 193.106 584.776 193.892 581.323 193.206C577.931 192.532 574.69 190.408 572.414 186.147L568.886 188.032ZM601.506 169.221C547.197 67.4041 440.359 1.03752 324.413 -1.41794L324.328 2.58116C438.815 5.00572 544.342 70.5519 597.976 171.103L601.506 169.221ZM324.411 -1.41799C216.859 -3.56659 114.258 49.8354 53.4033 137.838L56.6933 140.113C116.796 53.198 218.14 0.459796 324.331 2.58121L324.411 -1.41799ZM53.4039 137.837C-7.8551 226.328 -18.8652 343.26 23.1217 441.938L26.8024 440.372C-14.6563 342.935 -3.77152 227.457 56.6928 140.114L53.4039 137.837ZM23.1213 441.937C63.8756 537.854 152.226 610.359 255.165 630.389L255.929 626.463C154.312 606.69 67.0442 535.083 26.8027 440.373L23.1213 441.937ZM255.166 630.389C385.588 655.71 518.461 597.857 589.713 486.458L586.343 484.303C515.967 594.334 384.724 651.467 255.928 626.463L255.166 630.389ZM589.713 486.459C592.947 481.406 593.427 476.299 591.961 471.829C590.514 467.419 587.234 463.805 583.242 461.49C575.277 456.872 563.787 457.142 557.251 467.377L560.623 469.529C565.724 461.54 574.636 461.124 581.235 464.95C584.526 466.858 587.069 469.749 588.16 473.076C589.232 476.343 588.966 480.205 586.344 484.302L589.713 486.459Z" fill="#F5EBF9" mask="url(#path-1-inside-1_3488_441)"/>
<path d="M558.339 468.52C524.545 522.053 467.839 559.167 404.235 565.581C348.832 571.156 291.895 554.661 249.365 518.616C164.382 446.679 150.435 315.864 222.391 229.646C262.009 182.147 320.325 155.036 382.166 154.502C403.852 154.349 403.929 120.672 382.166 120.901C251.204 122.046 141.623 229.188 141.623 360.614C141.623 492.041 252.584 601.626 384.388 600.328C467.456 599.488 543.473 555.272 587.459 485.55C599.03 467.145 569.834 450.268 558.339 468.596" fill="#6F2B90"/>
<path d="M559.166 466.707C510.599 542.389 424.513 586.302 334.438 581.108C255.027 576.526 180.988 531.545 139.556 464.11C115.771 425.391 103.649 381.249 103.342 335.886C103.188 314.273 69.3524 314.197 69.5059 335.886C70.1964 427.987 115.694 514.132 191.883 566.522C271.447 621.202 376.177 629.527 464.257 591.036C515.51 568.66 558.322 530.475 588.322 483.737C600.061 465.409 570.828 448.531 559.166 466.783" fill="#6F2B90"/>
</svg>
