<?xml version="1.0" encoding="UTF-8" standalone="no"?>
<svg
   xmlns:dc="http://purl.org/dc/elements/1.1/"
   xmlns:cc="http://creativecommons.org/ns#"
   xmlns:rdf="http://www.w3.org/1999/02/22-rdf-syntax-ns#"
   xmlns:svg="http://www.w3.org/2000/svg"
   xmlns="http://www.w3.org/2000/svg"
   viewBox="0 0 544 758.66669"
   height="758.66669"
   width="544"
   xml:space="preserve"
   id="svg2"
   version="1.1"><metadata
     id="metadata8"><rdf:RDF><cc:Work
         rdf:about=""><dc:format>image/svg+xml</dc:format><dc:type
           rdf:resource="http://purl.org/dc/dcmitype/StillImage" /></cc:Work></rdf:RDF></metadata><defs
     id="defs6"><clipPath
       id="clipPath14"
       clipPathUnits="userSpaceOnUse"><path
         id="path12"
         d="M 0,0 H 720.202 V 720.202 H 0 Z" /></clipPath><clipPath
       id="clipPath22"
       clipPathUnits="userSpaceOnUse"><path
         id="path20"
         d="M 0,720.202 H 720.202 V 0 H 0 Z" /></clipPath></defs><g
     clip-path="url(#clipPath14)"
     transform="matrix(1.3333333,0,0,-1.3333333,-208,861.33333)"
     id="g10"><g
       id="g16"><g
         clip-path="url(#clipPath22)"
         id="g18"><g
           transform="translate(314.633,348.196)"
           id="g24"><path
             id="path26"
             style="fill:#aa044e;fill-opacity:1;fill-rule:nonzero;stroke:none"
             d="m 0,0 c -17.215,0 -33.693,3.138 -48.901,8.864 0,0 -2.635,0.377 -3.624,-1.853 -0.99,-2.229 0.758,-3.81 0.758,-3.81 23.768,-14.283 51.599,-22.495 81.349,-22.495 91.08,0 164.185,76.976 157.809,169.421 -5.402,78.308 -69.052,141.621 -147.384,146.644 -33.44,2.143 -64.828,-6.11 -91.242,-21.841 -3.334,-1.986 -0.895,-7.188 2.742,-5.831 17.667,6.592 37.031,9.689 57.27,8.44 C 77.908,273.282 134.096,217.331 138.603,148.212 143.876,67.283 79.793,0 0,0" /></g><g
           transform="translate(239.751,289.387)"
           id="g28"><path
             id="path30"
             style="fill:#aa044e;fill-opacity:1;fill-rule:nonzero;stroke:none"
             d="m 0,0 c 37.872,26.375 79.421,23.991 79.421,23.991 17.12,0.408 34.325,-1.168 51.486,-3.607 l 3.837,-0.437 c 20.243,-3.043 40.478,-6.33 60.9,-7.879 5.551,-0.42 19.543,-1.577 33.627,-1.685 0,0 17.612,0.408 27.418,3.11 0,0 3.265,0.935 4.311,-2.529 1.045,-3.464 0,0 0,0 0,0 0.811,-2.314 -2.52,-4.18 0,0 -23.949,-18.659 -62.224,-23.677 -4.163,-0.545 -8.363,-0.949 -12.573,-1.17 -19.128,-1.003 -38.389,0.641 -57.587,3.371 l -3.837,0.437 c -20.247,3.043 -40.477,6.334 -60.899,7.882 -2.89,0.219 -8.071,0.724 -14.361,1.159 0,0 -12.287,1.713 -26.662,0.642 0,0 -12.975,-1.038 -19.941,-2.915 0,0 -3.128,-0.567 -3.965,2.229 -0.837,2.796 2.042,4.202 2.042,4.202 z" /></g><g
           transform="translate(351.04,388.664)"
           id="g32"><path
             id="path34"
             style="fill:#aa044e;fill-opacity:1;fill-rule:nonzero;stroke:none"
             d="m 0,0 c -13.07,-5.694 -27.498,-8.852 -42.665,-8.852 -59.057,0 -106.933,47.875 -106.933,106.934 0,59.057 47.876,106.933 106.933,106.933 15.139,0 29.542,-3.146 42.593,-8.82 0,0 2.983,-1.043 1.961,-4.257 0,0 -0.82,-2.484 -3.804,-1.988 -6.606,1.47 -13.474,2.246 -20.524,2.246 -51.992,0 -94.139,-42.148 -94.139,-94.139 0,-51.992 42.147,-94.14 94.139,-94.14 6.98,0 13.782,0.761 20.329,2.203 0,0 3.11,0.942 4.133,-2.358 C 2.023,3.762 2.685,1.049 0,0" /></g><g
           transform="translate(358.811,208.817)"
           id="g36"><path
             id="path38"
             style="fill:#0f477f;fill-opacity:1;fill-rule:nonzero;stroke:none"
             d="m 0,0 h -4.909 c -0.74,0 -1.34,-0.602 -1.34,-1.343 v -42.771 c 0,-0.742 0.6,-1.344 1.34,-1.344 H 0 c 0.74,0 1.34,0.602 1.34,1.344 V -1.343 C 1.34,-0.602 0.74,0 0,0" /></g><g
           transform="translate(174.129,189.242)"
           id="g40"><path
             id="path42"
             style="fill:#0f477f;fill-opacity:1;fill-rule:nonzero;stroke:none"
             d="m 0,0 c 4.447,-0.646 7.64,-4.659 7.64,-9.165 v -6.816 c 0,-1.159 -0.949,-2.09 -2.103,-2.066 l -6.79,0.143 -0.051,0.001 c -3.923,0.036 -7.513,2.537 -8.612,6.314 C -11.827,-5.025 -6.431,0.934 0,0 m 11.472,-25.804 h 0.905 l 0.705,-0.015 c 0.095,-0.002 0.188,0.004 0.28,0.015 h 9.565 c 0.718,-0.071 10.805,-0.106 11.483,-0.106 h 2.477 c 12.29,0 11.452,13.391 11.452,13.391 v 12.311 c 0,0.736 -0.595,1.334 -1.33,1.334 h -4.927 c -0.735,0 -1.331,-0.598 -1.331,-1.334 v -11.845 c 0,0 0.467,-6.265 -6.833,-6.255 l -17.423,0.111 c -0.701,0.002 -1.266,0.572 -1.266,1.274 v 8.02 C 15.229,0.888 6.738,8.728 -3.246,7.6 -10.868,6.738 -16.999,0.537 -17.801,-7.114 c -0.393,-3.747 0.466,-7.28 2.207,-10.229 m 0,0 c 0.112,-0.189 0.227,-0.376 0.346,-0.56 5.442,-8.464 18.89,-7.901 18.89,-7.901 h 7.83" /></g><g
           transform="translate(284.921,201.218)"
           id="g44"><path
             id="path46"
             style="fill:#0f477f;fill-opacity:1;fill-rule:nonzero;stroke:none"
             d="m 0,0 h 3.653 c 1.058,0 1.915,0.86 1.915,1.921 v 3.664 c 0,1.061 -0.857,1.921 -1.915,1.921 H 0 c -1.058,0 -1.916,-0.86 -1.916,-1.921 V 1.921 C -1.916,0.86 -1.058,0 0,0" /></g><g
           transform="translate(164.373,201.218)"
           id="g48"><path
             id="path50"
             style="fill:#0f477f;fill-opacity:1;fill-rule:nonzero;stroke:none"
             d="m 0,0 h 3.653 c 1.058,0 1.916,0.86 1.916,1.921 v 3.664 c 0,1.061 -0.858,1.921 -1.916,1.921 H 0 c -1.058,0 -1.916,-0.86 -1.916,-1.921 V 1.921 C -1.916,0.86 -1.058,0 0,0" /></g><g
           transform="translate(176.052,201.218)"
           id="g52"><path
             id="path54"
             style="fill:#0f477f;fill-opacity:1;fill-rule:nonzero;stroke:none"
             d="m 0,0 h 3.653 c 1.058,0 1.915,0.86 1.915,1.921 v 3.664 c 0,1.061 -0.857,1.921 -1.915,1.921 H 0 c -1.058,0 -1.916,-0.86 -1.916,-1.921 V 1.921 C -1.916,0.86 -1.058,0 0,0" /></g><g
           transform="translate(256.391,154.902)"
           id="g56"><path
             id="path58"
             style="fill:#0f477f;fill-opacity:1;fill-rule:nonzero;stroke:none"
             d="m 0,0 h -3.653 c -1.058,0 -1.915,-0.86 -1.915,-1.921 v -3.664 c 0,-1.061 0.857,-1.921 1.915,-1.921 H 0 c 1.058,0 1.916,0.86 1.916,1.921 v 3.664 C 1.916,-0.86 1.058,0 0,0" /></g><g
           transform="translate(268.07,154.902)"
           id="g60"><path
             id="path62"
             style="fill:#0f477f;fill-opacity:1;fill-rule:nonzero;stroke:none"
             d="m 0,0 h -3.653 c -1.058,0 -1.916,-0.86 -1.916,-1.921 v -3.664 c 0,-1.061 0.858,-1.921 1.916,-1.921 H 0 c 1.058,0 1.916,0.86 1.916,1.921 v 3.664 C 1.916,-0.86 1.058,0 0,0" /></g><g
           transform="translate(196.63,154.902)"
           id="g64"><path
             id="path66"
             style="fill:#0f477f;fill-opacity:1;fill-rule:nonzero;stroke:none"
             d="m 0,0 h -3.653 c -1.058,0 -1.916,-0.86 -1.916,-1.921 v -3.664 c 0,-1.061 0.858,-1.921 1.916,-1.921 H 0 c 1.058,0 1.916,0.86 1.916,1.921 v 3.664 C 1.916,-0.86 1.058,0 0,0" /></g><g
           transform="translate(208.308,154.902)"
           id="g68"><path
             id="path70"
             style="fill:#0f477f;fill-opacity:1;fill-rule:nonzero;stroke:none"
             d="m 0,0 h -3.653 c -1.058,0 -1.915,-0.86 -1.915,-1.921 v -3.664 c 0,-1.061 0.857,-1.921 1.915,-1.921 H 0 c 1.058,0 1.916,0.86 1.916,1.921 v 3.664 C 1.916,-0.86 1.058,0 0,0" /></g><g
           transform="translate(178.91,92.3518)"
           id="g72"><path
             id="path74"
             style="fill:#0f477f;fill-opacity:1;fill-rule:nonzero;stroke:none"
             d="m 0,0 1.969,-1.77 c 0.65,-0.583 1.687,-0.387 2.069,0.393 0.282,0.577 0.528,1.213 0.738,1.911 0.407,1.346 0.609,2.95 0.609,4.814 0,1.563 -0.177,3.075 -0.532,4.539 -0.355,1.463 -0.922,2.769 -1.7,3.916 -0.778,1.148 -1.792,2.062 -3.043,2.744 -1.251,0.682 -2.773,1.023 -4.565,1.023 -1.793,0 -3.314,-0.341 -4.565,-1.023 -1.251,-0.682 -2.266,-1.596 -3.043,-2.744 -0.778,-1.147 -1.344,-2.453 -1.699,-3.916 -0.355,-1.464 -0.533,-2.976 -0.533,-4.539 0,-1.497 0.178,-2.952 0.533,-4.365 0.355,-1.414 0.921,-2.687 1.699,-3.817 0.777,-1.131 1.792,-2.038 3.043,-2.719 1.251,-0.681 2.772,-1.022 4.565,-1.022 0.575,0 1.184,0.016 1.826,0.05 0.642,0.032 1.099,0.183 1.37,0.449 l -2.417,2.164 c -0.54,0.483 -0.574,1.308 -0.075,1.831 l 1.913,2.01 C -1.349,0.444 -0.529,0.475 0,0 M 8.495,-14.805 5,-11.674 c -0.389,0.348 -0.958,0.446 -1.429,0.217 -0.987,-0.48 -2.064,-0.864 -3.233,-1.154 -1.47,-0.366 -3.068,-0.549 -4.793,-0.549 -2.807,0 -5.309,0.482 -7.506,1.447 -2.199,0.964 -4.058,2.277 -5.58,3.941 -1.521,1.662 -2.688,3.625 -3.5,5.886 -0.812,2.261 -1.217,4.672 -1.217,7.234 0,2.627 0.405,5.088 1.217,7.382 0.812,2.295 1.979,4.291 3.5,5.987 1.522,1.696 3.381,3.026 5.58,3.991 2.197,0.965 4.699,1.447 7.506,1.447 2.807,0 5.309,-0.482 7.507,-1.447 2.198,-0.965 4.057,-2.295 5.579,-3.991 1.522,-1.696 2.689,-3.692 3.5,-5.987 0.812,-2.294 1.217,-4.755 1.217,-7.382 0,-2.595 -0.405,-5.006 -1.217,-7.234 C 11.459,-3.732 10.543,-5.395 9.383,-6.876 8.973,-7.4 9.051,-8.148 9.549,-8.594 l 2.609,-2.335 c 0.542,-0.486 0.573,-1.315 0.069,-1.838 l -1.901,-1.972 c -0.491,-0.509 -1.305,-0.538 -1.831,-0.066" /></g><g
           transform="translate(208.669,93.7327)"
           id="g76"><path
             id="path78"
             style="fill:#0f477f;fill-opacity:1;fill-rule:nonzero;stroke:none"
             d="m 0,0 h 5.696 c 0.899,0 1.53,0.906 1.238,1.777 L 2.965,13.623 H 2.864 L -1.233,1.791 C -1.536,0.917 -0.904,0 0,0 m -0.189,22.774 h 6.355 c 0.545,0 1.034,-0.347 1.225,-0.871 L 19.955,-12.54 c 0.32,-0.877 -0.312,-1.811 -1.226,-1.811 h -5.443 c -0.56,0 -1.059,0.366 -1.239,0.91 L 9.911,-6.994 C 9.73,-6.45 9.232,-6.083 8.671,-6.083 H -3.006 c -0.556,0 -1.05,-0.359 -1.235,-0.896 l -2.225,-6.476 c -0.184,-0.537 -0.679,-0.896 -1.234,-0.896 h -5.242 c -0.916,0 -1.548,0.94 -1.223,1.818 l 12.752,34.442 c 0.193,0.521 0.68,0.865 1.224,0.865" /></g><g
           transform="translate(235.382,108.842)"
           id="g80"><path
             id="path82"
             style="fill:#0f477f;fill-opacity:1;fill-rule:nonzero;stroke:none"
             d="m 0,0 h -8.237 c -0.722,0 -1.308,0.601 -1.308,1.341 v 4.983 c 0,0.741 0.586,1.342 1.308,1.342 h 27.055 c 0.723,0 1.309,-0.601 1.309,-1.342 V 1.341 C 20.127,0.601 19.541,0 18.818,0 H 10.581 C 9.858,0 9.272,-0.601 9.272,-1.342 v -26.776 c 0,-0.741 -0.586,-1.342 -1.309,-1.342 H 2.618 c -0.723,0 -1.309,0.601 -1.309,1.342 V -1.342 C 1.309,-0.601 0.723,0 0,0" /></g><g
           transform="translate(266.898,93.7327)"
           id="g84"><path
             id="path86"
             style="fill:#0f477f;fill-opacity:1;fill-rule:nonzero;stroke:none"
             d="M 0,0 H 5.697 C 6.595,0 7.226,0.906 6.935,1.777 L 2.965,13.623 H 2.864 L -1.233,1.791 C -1.536,0.917 -0.904,0 0,0 m -0.189,22.774 h 6.355 c 0.545,0 1.034,-0.347 1.226,-0.871 L 19.956,-12.54 c 0.319,-0.877 -0.313,-1.811 -1.227,-1.811 h -5.443 c -0.56,0 -1.059,0.366 -1.239,0.91 L 9.911,-6.994 C 9.731,-6.45 9.232,-6.083 8.672,-6.083 H -3.006 c -0.556,0 -1.05,-0.359 -1.235,-0.896 l -2.224,-6.476 c -0.185,-0.537 -0.68,-0.896 -1.235,-0.896 h -5.241 c -0.916,0 -1.549,0.94 -1.224,1.818 l 12.752,34.442 c 0.193,0.521 0.68,0.865 1.224,0.865" /></g><g
           transform="translate(311.429,100.803)"
           id="g88"><path
             id="path90"
             style="fill:#0f477f;fill-opacity:1;fill-rule:nonzero;stroke:none"
             d="m 0,0 c -0.931,-0.727 -2.291,-1.091 -4.083,-1.091 h -7.416 c -0.722,0 -1.308,0.526 -1.308,1.174 v 6.792 c 0,0.647 0.586,1.172 1.308,1.172 h 7.416 C -2.291,8.047 -0.931,7.691 0,6.979 0.93,6.267 1.395,5.122 1.395,3.546 1.395,1.91 0.93,0.728 0,0 m 9.641,-19.708 c -0.019,0.069 -0.037,0.139 -0.055,0.211 -0.186,0.762 -0.321,1.551 -0.405,2.365 -0.085,0.815 -0.145,1.62 -0.178,2.418 -0.034,0.797 -0.068,1.49 -0.102,2.08 -0.068,0.936 -0.194,1.863 -0.38,2.782 -0.186,0.917 -0.481,1.775 -0.887,2.574 -0.406,0.797 -0.931,1.482 -1.572,2.053 -0.644,0.573 -1.455,0.996 -2.436,1.274 v 0.104 c 2.03,0.832 3.492,2.045 4.388,3.64 0.896,1.595 1.344,3.483 1.344,5.667 0,1.387 -0.246,2.705 -0.735,3.953 -0.491,1.247 -1.201,2.339 -2.131,3.275 -0.93,0.936 -2.046,1.672 -3.347,2.21 -1.302,0.537 -2.765,0.806 -4.388,0.806 h -18.219 c -0.723,0 -1.309,-0.6 -1.309,-1.342 V -20.08 c 0,-0.741 0.586,-1.341 1.309,-1.341 h 5.346 c 0.723,0 1.309,0.6 1.309,1.341 v 11.824 c 0,0.741 0.586,1.342 1.308,1.342 h 6.655 c 1.995,0 3.432,-0.451 4.311,-1.352 0.879,-0.902 1.454,-2.323 1.725,-4.264 0.101,-0.728 0.178,-1.499 0.228,-2.314 0.051,-0.815 0.118,-1.612 0.203,-2.391 0.084,-0.781 0.186,-1.526 0.305,-2.236 0.056,-0.339 0.126,-0.664 0.209,-0.975 0.155,-0.58 0.678,-0.975 1.265,-0.975 h 4.987 c 0.873,0 1.488,0.851 1.252,1.713" /></g><g
           transform="translate(366.563,103.726)"
           id="g92"><path
             id="path94"
             style="fill:#0f477f;fill-opacity:1;fill-rule:nonzero;stroke:none"
             d="m 0,0 c -0.575,0 -1.081,0.37 -1.244,0.911 -0.165,0.548 -0.402,1.065 -0.709,1.55 -0.474,0.747 -1.066,1.401 -1.775,1.965 -0.711,0.564 -1.514,1.002 -2.41,1.318 -0.897,0.315 -1.835,0.472 -2.815,0.472 -1.793,0 -3.314,-0.341 -4.565,-1.019 -1.251,-0.68 -2.265,-1.592 -3.043,-2.736 -0.778,-1.143 -1.344,-2.445 -1.699,-3.903 -0.355,-1.459 -0.533,-2.967 -0.533,-4.525 0,-1.492 0.178,-2.943 0.533,-4.351 0.355,-1.41 0.921,-2.678 1.699,-3.805 0.778,-1.127 1.792,-2.031 3.043,-2.71 1.251,-0.68 2.772,-1.019 4.565,-1.019 2.434,0 4.337,0.736 5.707,2.212 1.169,1.26 1.95,2.84 2.343,4.741 0.122,0.587 0.662,1.003 1.274,1.003 h 5.115 c 0.809,0 1.426,-0.717 1.297,-1.5 -0.27,-1.634 -0.731,-3.139 -1.381,-4.517 -0.846,-1.791 -1.963,-3.316 -3.348,-4.576 -1.387,-1.26 -3.009,-2.229 -4.869,-2.908 -1.86,-0.679 -3.906,-1.02 -6.138,-1.02 -2.806,0 -5.309,0.481 -7.506,1.442 -2.199,0.962 -4.058,2.271 -5.58,3.929 -1.522,1.657 -2.688,3.613 -3.5,5.867 -0.812,2.255 -1.217,4.658 -1.217,7.212 0,2.618 0.405,5.072 1.217,7.359 0.812,2.288 1.978,4.277 3.5,5.968 1.522,1.691 3.381,3.016 5.58,3.978 2.197,0.962 4.7,1.443 7.506,1.443 1.996,0 3.881,-0.282 5.656,-0.846 C -1.521,11.371 0.068,10.55 1.471,9.473 2.873,8.396 4.033,7.062 4.946,5.471 5.623,4.29 6.113,2.982 6.418,1.546 6.588,0.751 5.958,0 5.13,0 Z" /></g><g
           transform="translate(380.273,116.507)"
           id="g96"><path
             id="path98"
             style="fill:#0f477f;fill-opacity:1;fill-rule:nonzero;stroke:none"
             d="m 0,0 h 5.346 c 0.722,0 1.308,-0.601 1.308,-1.342 v -11.564 c 0,-0.74 0.586,-1.341 1.309,-1.341 h 12.041 c 0.723,0 1.309,0.601 1.309,1.341 v 11.564 c 0,0.741 0.586,1.342 1.309,1.342 h 5.346 c 0.723,0 1.309,-0.601 1.309,-1.342 v -34.442 c 0,-0.741 -0.586,-1.341 -1.309,-1.341 h -5.346 c -0.723,0 -1.309,0.6 -1.309,1.341 v 13.331 c 0,0.741 -0.586,1.342 -1.309,1.342 H 7.963 c -0.723,0 -1.309,-0.601 -1.309,-1.342 v -13.331 c 0,-0.741 -0.586,-1.341 -1.308,-1.341 H 0 c -0.723,0 -1.309,0.6 -1.309,1.341 V -1.342 C -1.309,-0.601 -0.723,0 0,0" /></g><g
           transform="translate(427.533,93.7327)"
           id="g100"><path
             id="path102"
             style="fill:#0f477f;fill-opacity:1;fill-rule:nonzero;stroke:none"
             d="m 0,0 h 5.697 c 0.898,0 1.53,0.906 1.238,1.777 L 2.965,13.623 H 2.863 L -1.233,1.79 C -1.536,0.917 -0.904,0 0,0 m -0.19,22.774 h 6.356 c 0.546,0 1.035,-0.347 1.226,-0.871 L 19.956,-12.54 c 0.319,-0.877 -0.313,-1.811 -1.226,-1.811 h -5.443 c -0.561,0 -1.059,0.366 -1.24,0.91 L 9.911,-6.994 C 9.73,-6.45 9.232,-6.083 8.672,-6.083 H -3.007 c -0.555,0 -1.05,-0.359 -1.234,-0.896 l -2.225,-6.476 c -0.184,-0.537 -0.679,-0.896 -1.235,-0.896 h -5.241 c -0.916,0 -1.549,0.94 -1.224,1.818 l 12.752,34.442 c 0.193,0.521 0.681,0.865 1.224,0.865" /></g><g
           transform="translate(472.064,100.802)"
           id="g104"><path
             id="path106"
             style="fill:#0f477f;fill-opacity:1;fill-rule:nonzero;stroke:none"
             d="m 0,0 c -0.93,-0.726 -2.292,-1.09 -4.083,-1.09 h -7.416 c -0.723,0 -1.309,0.525 -1.309,1.173 v 6.785 c 0,0.647 0.586,1.172 1.309,1.172 h 7.416 C -2.292,8.04 -0.93,7.683 0,6.972 0.93,6.261 1.395,5.117 1.395,3.542 1.395,1.908 0.93,0.727 0,0 m 9.641,-19.708 c -0.019,0.069 -0.037,0.14 -0.055,0.212 -0.187,0.762 -0.322,1.551 -0.405,2.365 -0.085,0.815 -0.145,1.62 -0.178,2.418 -0.035,0.797 -0.068,1.49 -0.101,2.08 -0.069,0.936 -0.195,1.863 -0.381,2.782 -0.186,0.917 -0.481,1.775 -0.888,2.574 -0.405,0.797 -0.93,1.482 -1.571,2.053 -0.644,0.573 -1.456,0.996 -2.435,1.274 v 0.104 c 2.028,0.832 3.491,2.045 4.387,3.64 0.896,1.595 1.344,3.483 1.344,5.667 0,1.387 -0.246,2.705 -0.736,3.953 -0.49,1.247 -1.201,2.339 -2.129,3.275 -0.931,0.936 -2.047,1.672 -3.349,2.21 -1.301,0.537 -2.764,0.806 -4.387,0.806 h -18.219 c -0.723,0 -1.309,-0.601 -1.309,-1.342 v -34.442 c 0,-0.741 0.586,-1.341 1.309,-1.341 h 5.345 c 0.723,0 1.309,0.6 1.309,1.341 v 11.824 c 0,0.741 0.586,1.342 1.309,1.342 h 6.655 c 1.994,0 3.431,-0.451 4.312,-1.352 0.878,-0.902 1.453,-2.323 1.723,-4.264 0.102,-0.728 0.178,-1.499 0.229,-2.314 0.051,-0.815 0.118,-1.612 0.203,-2.391 0.085,-0.781 0.185,-1.526 0.304,-2.236 0.056,-0.339 0.127,-0.664 0.21,-0.975 0.155,-0.58 0.678,-0.975 1.265,-0.975 h 4.987 c 0.873,0 1.488,0.851 1.252,1.712" /></g><g
           transform="translate(489.222,116.507)"
           id="g108"><path
             id="path110"
             style="fill:#0f477f;fill-opacity:1;fill-rule:nonzero;stroke:none"
             d="m 0,0 h 5.345 c 0.723,0 1.309,-0.601 1.309,-1.342 v -34.442 c 0,-0.741 -0.586,-1.341 -1.309,-1.341 H 0 c -0.723,0 -1.309,0.6 -1.309,1.341 V -1.342 C -1.309,-0.601 -0.723,0 0,0" /></g><g
           transform="translate(509.582,108.842)"
           id="g112"><path
             id="path114"
             style="fill:#0f477f;fill-opacity:1;fill-rule:nonzero;stroke:none"
             d="M 0,0 H -8.237 C -8.96,0 -9.546,0.601 -9.546,1.341 v 4.983 c 0,0.741 0.586,1.342 1.309,1.342 h 27.054 c 0.724,0 1.309,-0.601 1.309,-1.342 V 1.341 C 20.126,0.601 19.541,0 18.817,0 H 10.581 C 9.857,0 9.271,-0.601 9.271,-1.342 v -26.776 c 0,-0.741 -0.585,-1.342 -1.308,-1.342 H 2.617 c -0.722,0 -1.308,0.601 -1.308,1.342 V -1.342 C 1.309,-0.601 0.723,0 0,0" /></g><g
           transform="translate(543.062,94.1565)"
           id="g116"><path
             id="path118"
             style="fill:#0f477f;fill-opacity:1;fill-rule:nonzero;stroke:none"
             d="m 0,0 -11.954,20.316 c -0.526,0.894 0.101,2.035 1.121,2.035 h 5.913 c 0.462,0 0.891,-0.25 1.126,-0.659 L 3.167,9.643 C 3.675,8.764 4.916,8.766 5.421,9.646 l 6.915,12.043 c 0.236,0.41 0.665,0.662 1.128,0.662 h 5.813 c 1.018,0 1.646,-1.14 1.121,-2.034 L 8.339,-0.208 C 8.216,-0.417 8.151,-0.656 8.151,-0.9 v -12.533 c 0,-0.741 -0.586,-1.342 -1.309,-1.342 H 1.497 c -0.723,0 -1.309,0.601 -1.309,1.342 v 12.74 C 0.188,-0.449 0.123,-0.209 0,0" /></g><g
           transform="translate(556.356,172.932)"
           id="g120"><path
             id="path122"
             style="fill:#0f477f;fill-opacity:1;fill-rule:nonzero;stroke:none"
             d="m 0,0 c 0,-1.158 -0.952,-2.09 -2.109,-2.066 l -6.81,0.144 H -9 c -4.962,0 -9,4.038 -9,9 0,5.156 4.359,9.314 9.585,8.982 C -3.652,15.757 0,11.689 0,6.917 Z m -47.639,0.745 c -0.065,-1.495 -1.312,-2.667 -2.808,-2.667 h -33.406 c 1.599,1.76 3.498,3.701 5.618,5.584 5.563,4.941 13.765,10.442 21.247,8.591 4.024,-0.994 6.772,-2.833 8.166,-5.463 1.031,-1.945 1.267,-4.133 1.183,-6.045 m 36.721,22.836 c -7.645,-0.862 -13.794,-7.063 -14.599,-14.714 -0.419,-3.987 0.583,-7.732 2.561,-10.789 h -14.761 c -1.316,0 -2.383,1.076 -2.329,2.391 0.122,2.993 -0.283,6.513 -2.017,9.821 -2.444,4.661 -6.852,7.808 -13.098,9.352 -4.854,1.2 -10.08,0.58 -15.534,-1.841 -4.089,-1.815 -8.326,-4.657 -12.594,-8.448 -1.124,-0.998 -2.186,-2.006 -3.184,-3 v 27.848 c 0,0.88 -0.713,1.592 -1.592,1.592 h -4.428 c -0.879,0 -1.591,-0.712 -1.591,-1.592 V -0.652 c 0,-0.702 -0.568,-1.27 -1.27,-1.27 h -66.607 -0.417 c -0.749,0 -1.358,0.612 -1.351,1.363 0.002,0.24 0,0.414 -0.002,0.514 v 15.341 c 0,0.737 -0.596,1.335 -1.331,1.335 h -4.927 c -0.735,0 -1.331,-0.598 -1.331,-1.335 V -0.849 -0.902 l 0.002,-0.065 c 0.003,-0.086 0.181,-8.654 -4.784,-13.649 -2.444,-2.459 -5.731,-3.673 -10.029,-3.702 -0.416,-0.003 -0.767,-0.334 -0.777,-0.75 l -0.15,-6.08 c -0.01,-0.427 0.33,-0.782 0.756,-0.782 h 0.008 c 6.438,0 11.689,2.013 15.613,5.987 2.863,2.9 4.939,7.147 5.83,10.438 h 8.693 l 0.021,-0.028 H -9.04 L 5.458,-9.838 c 1.182,-0.025 2.153,0.926 2.153,2.109 V 7.078 c 0,9.792 -8.515,17.631 -18.529,16.503" /></g><g
           transform="translate(538.612,201.305)"
           id="g124"><path
             id="path126"
             style="fill:#0f477f;fill-opacity:1;fill-rule:nonzero;stroke:none"
             d="m 0,0 h 3.664 c 1.061,0 1.921,0.86 1.921,1.921 v 3.664 c 0,1.061 -0.86,1.921 -1.921,1.921 H 0 c -1.062,0 -1.921,-0.86 -1.921,-1.921 V 1.921 C -1.921,0.86 -1.062,0 0,0" /></g><g
           transform="translate(550.325,201.305)"
           id="g128"><path
             id="path130"
             style="fill:#0f477f;fill-opacity:1;fill-rule:nonzero;stroke:none"
             d="m 0,0 h 3.664 c 1.061,0 1.921,0.86 1.921,1.921 v 3.664 c 0,1.061 -0.86,1.921 -1.921,1.921 H 0 c -1.061,0 -1.921,-0.86 -1.921,-1.921 V 1.921 C -1.921,0.86 -1.061,0 0,0" /></g><g
           transform="translate(285.967,185.69)"
           id="g132"><path
             id="path134"
             style="fill:#0f477f;fill-opacity:1;fill-rule:nonzero;stroke:none"
             d="m 0,0 h 6.959 l 1.128,0.028 c 9.761,0.096 13.166,-3.852 13.166,-3.852 1.649,-1.447 2.575,-3.34 3.689,-5.836 0.725,-1.625 1.507,-3.373 2.622,-5.071 h -0.459 -41.777 c -0.81,0 -1.468,0.658 -1.468,1.47 v 16.29 c 0,0.812 -0.657,1.47 -1.468,1.47 h -4.652 c -0.811,0 -1.469,-0.658 -1.469,-1.47 v -16.453 c 0,-0.722 -0.583,-1.307 -1.305,-1.307 h -10.57 v -0.013 h -3.318 c -0.748,0 -1.357,0.612 -1.35,1.363 0.002,0.239 0,0.414 -0.002,0.513 V 2.474 c 0,0.737 -0.596,1.335 -1.331,1.335 h -4.927 c -0.736,0 -1.331,-0.598 -1.331,-1.335 v -16.145 -0.053 l 0.002,-0.066 c 0.002,-0.085 0.181,-8.653 -4.784,-13.648 -2.444,-2.459 -5.731,-3.673 -10.029,-3.703 -0.416,-0.003 -0.767,-0.334 -0.777,-0.75 l -0.15,-6.08 c -0.01,-0.426 0.33,-0.781 0.755,-0.781 h 0.009 c 6.438,0 11.689,2.012 15.613,5.987 2.863,2.899 4.939,7.146 5.829,10.437 h 6.123 v -0.003 h 13.012 2.326 30.923 43.259 0.501 2.636 c 0.811,0 1.468,0.658 1.468,1.47 v 42.444 c 0,0.813 -0.657,1.47 -1.468,1.47 h -4.653 c -0.81,0 -1.467,-0.657 -1.467,-1.47 v -34.844 c 0,-0.812 -0.658,-1.47 -1.469,-1.47 H 40.54 40.16 c -1.768,0.283 -3.401,1.106 -4.431,1.994 -1.822,1.57 -2.759,3.668 -3.848,6.108 -1.136,2.546 -2.693,6.033 -5.984,8.74 C 21.668,5.589 15.823,7.01 11.638,7.296 7.178,7.6 3.017,7.729 -1.294,7.474 -2.062,7.428 -2.646,6.775 -2.598,6.018 L -2.618,1.747 C -2.618,1.747 -2.88,-0.189 0,0" /></g></g></g></g></svg>